<svg xmlns="http://www.w3.org/2000/svg" xmlns:xlink="http://www.w3.org/1999/xlink" viewBox="0 0 778.65 486.34"><defs><style>.cls-1{fill:url(#linear-gradient);}.cls-2{fill:url(#linear-gradient-2);}.cls-3{fill:url(#linear-gradient-3);}.cls-4{fill:url(#linear-gradient-4);}.cls-5{fill:url(#linear-gradient-5);}.cls-6{fill:url(#linear-gradient-6);}.cls-7{fill:url(#linear-gradient-7);}.cls-8{fill:url(#linear-gradient-8);}.cls-9{fill:url(#linear-gradient-9);}.cls-10{fill:url(#linear-gradient-10);}.cls-11{fill:url(#linear-gradient-11);}.cls-12{fill:#fff;opacity:0.61;}</style><linearGradient id="linear-gradient" x1="-72.95" y1="308.58" x2="633.68" y2="-162.82" gradientUnits="userSpaceOnUse"><stop offset="0" stop-color="#ff00f1"/><stop offset="1" stop-color="#6100ff"/></linearGradient><linearGradient id="linear-gradient-2" x1="92.27" y1="556.24" x2="798.9" y2="84.83" xlink:href="#linear-gradient"/><linearGradient id="linear-gradient-3" x1="37.87" y1="474.55" x2="744.41" y2="3.2" xlink:href="#linear-gradient"/><linearGradient id="linear-gradient-4" x1="134" y1="618.78" x2="840.62" y2="147.38" xlink:href="#linear-gradient"/><linearGradient id="linear-gradient-5" x1="37.01" y1="473.41" x2="743.64" y2="2" xlink:href="#linear-gradient"/><linearGradient id="linear-gradient-6" x1="64.8" y1="515.06" x2="771.42" y2="43.65" xlink:href="#linear-gradient"/><linearGradient id="linear-gradient-7" x1="83.88" y1="543.66" x2="790.51" y2="72.25" xlink:href="#linear-gradient"/><linearGradient id="linear-gradient-8" x1="107.22" y1="578.65" x2="813.85" y2="107.24" xlink:href="#linear-gradient"/><linearGradient id="linear-gradient-9" x1="161.14" y1="659.47" x2="867.77" y2="188.07" xlink:href="#linear-gradient"/><linearGradient id="linear-gradient-10" x1="190.02" y1="702.77" x2="896.65" y2="231.36" xlink:href="#linear-gradient"/><linearGradient id="linear-gradient-11" x1="221.1" y1="749.35" x2="927.73" y2="277.95" xlink:href="#linear-gradient"/></defs><title>Logo_1</title><g id="Calque_2" data-name="Calque 2"><g id="Charte_Graphique" data-name="Charte Graphique"><path class="cls-1" d="M207.57,178.91V0H132.22L7.39,171.29,0,181.41v58.52H136.71v53.23h70.86V239.93h34.81v-61Zm-65.11,0H71.2L142.46,81.1Z"/><path class="cls-2" d="M743.85,179.08V.11H668.49L659.85,12l-2.62,3.58L633.8,47.71,536.22,181.53V240H673v53.23h70.86V240h34.8v-61Zm-65.12,0H607.47l71.26-97.87Z"/><path class="cls-3" d="M503.4,215.08v1.14a109.94,109.94,0,0,1-.91,13.19A114,114,0,0,1,453,309.77c-1.71,1.13-3.47,2.27-5.23,3.29-.12.06-.17.12-.29.17-7.79,7.17-13.65,13.37-17.4,18.49A33,33,0,0,0,423.62,347a40,40,0,0,0-.57,7.05h.05v25.82H352.19V354c-.29-8.47-1.25-14.39,1-26.22.06-.28.12-.57.17-.91.17-.79.34-1.7.57-2.61a2.46,2.46,0,0,1,.17-.51c0-.06,0-.06.06-.12.57-1.65,2.56-6.71,7.56-14.22,8-11.94,23.55-30,53.23-50.44l-.05-.11c.68-.4,1.3-.8,1.93-1.2s1.08-.74,1.59-1.08c.06,0,.17-.11.23-.17A44.93,44.93,0,0,0,425,251l.11-.11A50.44,50.44,0,0,0,440,215.08v-.74a50.77,50.77,0,0,0-101.52-.11v.85a50.5,50.5,0,0,0,1.6,12.62c.11.46.22.86.34,1.25a50.24,50.24,0,0,0,6.88,14.68l-49.93,39.24A114.57,114.57,0,0,1,276,229.41c-.35-3.07-.63-6.14-.74-9.27a13.13,13.13,0,0,1-.06-1.54c-.11-1.13-.11-2.33-.11-3.52a6.31,6.31,0,0,1,.05-1,13,13,0,0,1,.06-1.53,106.21,106.21,0,0,1,1-12.8c.12-1.14.29-2.27.51-3.35a98.38,98.38,0,0,1,2.68-12.29,114.08,114.08,0,0,1,109.81-83.2,112.51,112.51,0,0,1,45.72,9.61H435a114,114,0,0,1,52.21,46,112,112,0,0,1,14.67,40c.17.91.34,1.88.45,2.79v.17a105.74,105.74,0,0,1,1,13.48C503.4,213.6,503.4,214.34,503.4,215.08Z"/><path class="cls-4" d="M417.76,422.14q-11-10.5-28.26-10.47c-11.44,0-20.88,3.47-28.21,10.47a34.24,34.24,0,0,0-11.09,26,35.23,35.23,0,0,0,11.26,26.38c7.5,7.28,16.83,10.87,28,10.87s20.53-3.59,28.09-10.87a35.45,35.45,0,0,0,11.26-26.38A34.24,34.24,0,0,0,417.76,422.14Zm-28.21,43.45a17.07,17.07,0,1,1,17.06-17.06A17.08,17.08,0,0,1,389.55,465.59Z"/><path class="cls-5" d="M114.19,429.47a29.76,29.76,0,0,0-6.54-13c-5.17-5.86-12.17-8.82-21-8.82a29.5,29.5,0,0,0-15.41,4,25.78,25.78,0,0,0-9.84,10.92v-14H37.87v76.83H61.42V444.6c0-5.57,1.42-9.89,4.21-13a13.41,13.41,0,0,1,4.94-3.36A17.51,17.51,0,0,1,77,427.14a16.5,16.5,0,0,1,6.2,1.14,12.74,12.74,0,0,1,4.61,3.18c2.72,2.9,4.09,6.89,4.09,12.06v41.86h23.54V440.73A46.18,46.18,0,0,0,114.19,429.47Z"/><path class="cls-6" d="M201.6,426a35,35,0,0,0-14.22-13.71A42.93,42.93,0,0,0,167,407.58a43.42,43.42,0,0,0-20.53,4.72A34.79,34.79,0,0,0,132.16,426a36.9,36.9,0,0,0-3.86,9.66A47.41,47.41,0,0,0,127,446.93c0,8,1.7,15,5.17,20.93A34.36,34.36,0,0,0,146,481.34a1.48,1.48,0,0,0,.4.23A43.44,43.44,0,0,0,167,486.34a43,43,0,0,0,20.41-4.77,34.75,34.75,0,0,0,14.22-13.71,44.93,44.93,0,0,0,0-41.85Zm-23.37,35A14.73,14.73,0,0,1,167,465.81,15,15,0,0,1,155.59,461c-3.07-3.19-4.6-7.85-4.6-14.05s1.53-10.86,4.6-14.1A15,15,0,0,1,167,427.94a14.79,14.79,0,0,1,11.26,4.89c3,3.24,4.55,8,4.55,14.1S181.24,457.79,178.23,461Z"/><path class="cls-7" d="M255.11,465.13c-3,0-5.06-.57-6.31-1.76S247,460,247,457V428.34h15.41V408.55H247V389.67H223.44v18.88H213.09v19.79h10.35V456.6c0,10.29,2.5,17.63,7.5,22.12s12,6.66,21,6.66h10.58V465.13Z"/><path class="cls-8" d="M341,398.08l2.62.12V378c-1.08-.11-2.73-.17-5-.17-10.58,0-18.65,2.62-24.17,7.79s-8.36,12.57-8.36,22.12v.86H297v19.79h9.21v57h23.55v-57h13.93V408.55H329.73q.33-5.55,2.9-8C334.39,398.88,337.18,398.08,341,398.08Z"/><path class="cls-9" d="M494.76,408.55v40.77c0,5.57-1.37,9.9-4.15,12.91s-6.49,4.55-11.26,4.55c-4.61,0-8.25-1.42-11-4.32s-4-6.94-4-12.17V408.55H440.9v44.58c0,10.3,2.62,18.37,7.8,24.28s12.17,8.82,21,8.82a28.66,28.66,0,0,0,15.24-4,25.3,25.3,0,0,0,9.84-10.75v13.94h23.71V408.55Z"/><path class="cls-10" d="M604.46,416.51c-5.18-5.86-12.17-8.82-21-8.82a29.16,29.16,0,0,0-15.36,4,25.6,25.6,0,0,0-9.9,10.92v-14H534.68v76.83h23.54V444.6c0-5.57,1.43-9.89,4.21-13s6.6-4.5,11.38-4.5c4.49,0,8.13,1.42,10.8,4.32s4.1,6.89,4.1,12.06v41.86h23.54V440.73C612.25,430.5,609.63,422.37,604.46,416.51Z"/><path class="cls-11" d="M681.4,383.47v38.95a23.21,23.21,0,0,0-9.27-10.86,27.66,27.66,0,0,0-15.12-4,31.05,31.05,0,0,0-17,4.72A32.77,32.77,0,0,0,628.17,426c-2.9,5.91-4.38,12.91-4.38,21a47.09,47.09,0,0,0,4.38,20.93A32.34,32.34,0,0,0,640,481.57a31.09,31.09,0,0,0,17,4.77,27.57,27.57,0,0,0,15.12-4,23.07,23.07,0,0,0,9.27-10.92v13.94H705V383.47Zm-4.6,77.11a17.3,17.3,0,0,1-24.4.17c-3.07-3.35-4.61-7.9-4.61-13.82s1.54-10.46,4.61-13.76a15.9,15.9,0,0,1,12.17-4.95,16.12,16.12,0,0,1,12.23,5c3.13,3.35,4.72,8,4.72,13.7S679.93,457.17,676.8,460.58Z"/><path class="cls-12" d="M40.89,179.71a8.43,8.43,0,0,1-8.42,8.41H.11a11.93,11.93,0,0,1-.11,1.6v-8.31l7.39-10.12H32.47A8.39,8.39,0,0,1,40.89,179.71Z"/><path class="cls-12" d="M121.19,219.86a8.42,8.42,0,0,1-8.36,8.41H0V211.44H3.7A4.89,4.89,0,0,1,3.53,210a4.29,4.29,0,0,1,.34-1.82H0V191.36H56.76a8.42,8.42,0,0,1,0,16.84h-9.5a5.57,5.57,0,0,1,.28,1.82,4.89,4.89,0,0,1-.17,1.42h65.46A8.39,8.39,0,0,1,121.19,219.86Z"/><path class="cls-12" d="M355.66,323.64h-1.48c.57-1.65,2.56-6.71,7.56-14.22a8.23,8.23,0,0,1,2.34,5.8A8.44,8.44,0,0,1,355.66,323.64Z"/><path class="cls-12" d="M423.05,354h.05v9.78H352.19V354c-.29-8.47-1.25-14.39,1-26.22.06-.28.12-.57.17-.91h26.56a8.42,8.42,0,0,1,0,16.84h-9.5a5.55,5.55,0,0,1,.29,1.82,5.31,5.31,0,0,1-.17,1.42h53.06A40,40,0,0,0,423.05,354Z"/><path class="cls-12" d="M207.57,0V4.83A7.68,7.68,0,0,1,205.41,0Z"/><path class="cls-12" d="M138.53,10.81h69V27.64h-69a8.42,8.42,0,0,1,0-16.83Z"/><path class="cls-12" d="M194.55,30.88h13V47.71h-13a8.42,8.42,0,1,1,0-16.83Z"/><path class="cls-12" d="M435,110.55h-.06a6.59,6.59,0,0,0,1.31,13h15.3c-1.14.11-1.93.62-1.93,3.29H407.75a6.6,6.6,0,0,0,0,13.2h57.66c-2,.06-3.52.45-3.52,3.3H436.24a6.57,6.57,0,0,0,0,13.13h51A114,114,0,0,0,435,110.55Z"/><path class="cls-12" d="M322.73,216.22H285.42c0-2.79-1.47-3.25-3.58-3.3h12.34a6.57,6.57,0,1,0,0-13.14h-18a106.21,106.21,0,0,0-1,12.8,13,13,0,0,0-.06,1.53,6.31,6.31,0,0,0-.05,1c0,1.19,0,2.39.11,3.52a13.13,13.13,0,0,0,.06,1.54c.11,3.13.39,6.2.74,9.27h46.74a6.6,6.6,0,1,0,0-13.19ZM279.4,184.14a98.38,98.38,0,0,0-2.68,12.29,6.54,6.54,0,0,0,6.09-6.54A6.46,6.46,0,0,0,279.4,184.14Zm-48.51,32.08a6.6,6.6,0,1,0,0,13.19h11.49V216.22Zm-28.55-16.44a6.57,6.57,0,1,0,0,13.14h40V199.78Zm28.55-16.49a6.6,6.6,0,1,0,0,13.19h11.49V183.29Z"/><path class="cls-12" d="M731.34,273.31a6.6,6.6,0,0,0,0,13.2h12.51v-13.2Zm-28.55-16.43a6.57,6.57,0,1,0,0,13.13h41.06V256.88Zm28.55-16.49a6.6,6.6,0,1,0,0,13.19h12.51V240.39Z"/><path class="cls-12" d="M498.91,183.29H489a6.6,6.6,0,1,0,0,13.19h12.91A111.26,111.26,0,0,0,498.91,183.29Zm3.41,16.15a.8.8,0,0,0-.05.34H460.41a6.57,6.57,0,1,0,0,13.14h42.94A105.74,105.74,0,0,0,502.32,199.44ZM489,216.22a6.6,6.6,0,1,0,0,13.19h13.53a109.94,109.94,0,0,0,.91-13.19Zm47.26-32.59V196.2a6.61,6.61,0,0,0,4.66-6.31A6.49,6.49,0,0,0,536.22,183.63Zm44.58,32.59H543.5c0-2.79-1.48-3.25-3.59-3.3h12.34a6.57,6.57,0,1,0,0-13.14h-16v29.63H580.8a6.6,6.6,0,1,0,0-13.19Z"/><path class="cls-12" d="M672.13.11h-3.64L659.85,12h7A7.11,7.11,0,0,0,674,4.89,6.79,6.79,0,0,0,672.13.11Zm25.71,15.47H657.23L633.8,47.71h33.1a7.14,7.14,0,0,0,0-14.27H650.3c1.25-.11,2.16-.68,2.16-3.58h45.38a7.14,7.14,0,0,0,0-14.28Z"/></g></g></svg>