<svg xmlns="http://www.w3.org/2000/svg" xmlns:xlink="http://www.w3.org/1999/xlink" viewBox="0 0 154.32 154.69"><defs><style>.cls-1{fill:#fff;}.cls-2{fill:#ededed;}.cls-3{fill:url(#linear-gradient);}.cls-4{fill:url(#linear-gradient-2);}.cls-5{fill:url(#linear-gradient-3);}.cls-6{fill:url(#linear-gradient-4);}.cls-7{fill:url(#linear-gradient-5);}.cls-8{fill:url(#linear-gradient-6);}.cls-9{fill:url(#linear-gradient-7);}.cls-10{fill:url(#linear-gradient-8);}.cls-11{fill:url(#linear-gradient-9);}</style><linearGradient id="linear-gradient" x1="20.64" y1="111.56" x2="63.21" y2="111.56" gradientUnits="userSpaceOnUse"><stop offset="0" stop-color="#ff00f1"/><stop offset="1" stop-color="#6100ff"/></linearGradient><linearGradient id="linear-gradient-2" x1="19.02" y1="111.56" x2="64.84" y2="111.56" gradientTransform="translate(91.16 3.03) rotate(45)" xlink:href="#linear-gradient"/><linearGradient id="linear-gradient-3" x1="88.76" y1="43.44" x2="131.34" y2="43.44" xlink:href="#linear-gradient"/><linearGradient id="linear-gradient-4" x1="87.13" y1="43.44" x2="132.96" y2="43.44" gradientTransform="translate(62.95 -65.09) rotate(45)" xlink:href="#linear-gradient"/><linearGradient id="linear-gradient-5" x1="2.53" y1="131.39" x2="151.98" y2="20.75" xlink:href="#linear-gradient"/><linearGradient id="linear-gradient-6" x1="44.58" y1="77.46" x2="109.11" y2="77.46" xlink:href="#linear-gradient"/><linearGradient id="linear-gradient-7" x1="42.96" y1="77.46" x2="110.74" y2="77.46" gradientTransform="translate(77.28 -31.65) rotate(45)" xlink:href="#linear-gradient"/><linearGradient id="linear-gradient-8" x1="-8.17" y1="116.93" x2="141.28" y2="6.29" xlink:href="#linear-gradient"/><linearGradient id="linear-gradient-9" x1="106.14" y1="21.28" x2="116.46" y2="21.28" xlink:href="#linear-gradient"/></defs><title>edit</title><g id="Calque_2" data-name="Calque 2"><g id="Charte_Graphique" data-name="Charte Graphique"><path class="cls-1" d="M19.66,149.53a14.56,14.56,0,0,1-14.2-17.46l6.08-29.73A29,29,0,0,1,19.47,87.6l76.4-76.4a20.64,20.64,0,0,1,29.19,0l18.05,18.05a20.65,20.65,0,0,1,0,29.18l-76.41,76.4a29.6,29.6,0,0,1-14.66,8l-29.27,6.34a14.83,14.83,0,0,1-3.12.34Z"/><rect class="cls-2" x="43.11" y="76.91" width="90.12" height="24.93" transform="translate(-37.38 88.53) rotate(-45)"/><line class="cls-3" x1="63.21" y1="132.85" x2="20.64" y2="90.27"/><rect class="cls-4" x="39.63" y="81.46" width="4.6" height="60.21" transform="translate(-66.6 62.32) rotate(-45)"/><line class="cls-5" x1="131.34" y1="64.73" x2="88.76" y2="22.15"/><rect class="cls-6" x="107.75" y="13.33" width="4.6" height="60.22" transform="translate(1.52 90.54) rotate(-45)"/><path class="cls-7" d="M146.75,25.61l-18-18a25.81,25.81,0,0,0-36.49,0L15.82,84a34.25,34.25,0,0,0-9.34,17.34L.4,131a19.7,19.7,0,0,0,19.26,23.65,20.2,20.2,0,0,0,4.23-.45l29.25-6.35a34.75,34.75,0,0,0,17.23-9.4l76.4-76.4a25.78,25.78,0,0,0,0-36.48ZM10.35,134.66c0,.26,0,.52,0,.77C10.33,135.18,10.34,134.92,10.35,134.66Zm0,1.21c0,.23,0,.45.08.68C10.43,136.32,10.4,136.1,10.38,135.87Zm.17,1.12c0,.22.1.43.16.64C10.65,137.42,10.6,137.21,10.55,137Zm.3,1.07c.08.2.15.4.24.6C11,138.46,10.93,138.26,10.85,138.06Zm.42,1c.1.2.2.39.31.58C11.47,139.45,11.37,139.26,11.27,139.06Zm.53.95c.12.19.26.38.39.56C12.06,140.39,11.92,140.2,11.8,140Zm.62.87c.17.21.36.41.54.6C12.78,141.29,12.59,141.09,12.42,140.88Zm.72.79q.39.38.81.72Q13.53,142,13.14,141.67Zm.93.8a8,8,0,0,0,.77.52A8,8,0,0,1,14.07,142.47Zm1.07.69c.21.12.43.24.65.34C15.57,143.4,15.35,143.28,15.14,143.16Zm1,.5c.21.08.42.17.64.24C16.58,143.83,16.37,143.74,16.16,143.66Zm1.05.36.66.16Zm1.09.23c.23,0,.46.06.69.07C18.76,144.31,18.53,144.28,18.3,144.25Zm1.13.1a6.77,6.77,0,0,0,.78,0l-.55,0Zm1.12,0a9.6,9.6,0,0,0,1.14-.18A9.6,9.6,0,0,1,20.55,144.32ZM139.47,54.79l-76.41,76.4A24.56,24.56,0,0,1,51,137.8l-16.06,3.48L13.27,119.66l-2.75,13.45a9.39,9.39,0,0,0-.16,1.17,9.39,9.39,0,0,1,.16-1.17l6.08-29.73a24,24,0,0,1,6.52-12.13l76.41-76.4a15.49,15.49,0,0,1,21.88,0l18,18A15.48,15.48,0,0,1,139.47,54.79Z"/><line class="cls-8" x1="44.58" y1="109.73" x2="109.11" y2="45.2"/><rect class="cls-9" x="31.22" y="75.16" width="91.26" height="4.6" transform="translate(-32.27 77.02) rotate(-45)"/><path class="cls-10" d="M57.92,73.63A2.3,2.3,0,0,1,56.3,69.7L83,43.31a2.3,2.3,0,0,1,3.24,3.27L59.53,73A2.3,2.3,0,0,1,57.92,73.63Z"/><path class="cls-11" d="M108.44,24.1a2.3,2.3,0,0,1-1.35-4.16,7.26,7.26,0,0,1,8.22-.38,2.3,2.3,0,0,1-2.3,4,2.67,2.67,0,0,0-3.21.11A2.31,2.31,0,0,1,108.44,24.1Z"/></g></g></svg>