<svg xmlns="http://www.w3.org/2000/svg" xmlns:xlink="http://www.w3.org/1999/xlink" viewBox="0 0 190.76 167.66"><defs><style>.cls-1{fill:none;}.cls-2{fill:#ededed;}.cls-3{fill:url(#linear-gradient);}.cls-4{fill:url(#linear-gradient-2);}.cls-5{fill:url(#linear-gradient-3);}.cls-6{clip-path:url(#clip-path);}.cls-7{fill:#ff00f1;}.cls-8{fill:#fe00f1;}.cls-9{fill:#fd00f1;}.cls-10{fill:#fc00f1;}.cls-11{fill:#fb00f1;}.cls-12{fill:#fa00f1;}.cls-13{fill:#f900f2;}.cls-14{fill:#f800f2;}.cls-15{fill:#f700f2;}.cls-16{fill:#f600f2;}.cls-17{fill:#f500f2;}.cls-18{fill:#f400f2;}.cls-19{fill:#f300f2;}.cls-20{fill:#f200f2;}.cls-21{fill:#f100f2;}.cls-22{fill:#f000f2;}.cls-23{fill:#ef00f2;}.cls-24{fill:#ee00f3;}.cls-25{fill:#ed00f3;}.cls-26{fill:#ec00f3;}.cls-27{fill:#eb00f3;}.cls-28{fill:#ea00f3;}.cls-29{fill:#e900f3;}.cls-30{fill:#e800f3;}.cls-31{fill:#e700f3;}.cls-32{fill:#e600f3;}.cls-33{fill:#e500f3;}.cls-34{fill:#e400f3;}.cls-35{fill:#e300f3;}.cls-36{fill:#e200f4;}.cls-37{fill:#e100f4;}.cls-38{fill:#e000f4;}.cls-39{fill:#df00f4;}.cls-40{fill:#de00f4;}.cls-41{fill:#dd00f4;}.cls-42{fill:#dc00f4;}.cls-43{fill:#db00f4;}.cls-44{fill:#da00f4;}.cls-45{fill:#d900f4;}.cls-46{fill:#d800f4;}.cls-47{fill:#d700f5;}.cls-48{fill:#d600f5;}.cls-49{fill:#d500f5;}.cls-50{fill:#d400f5;}.cls-51{fill:#d300f5;}.cls-52{fill:#d200f5;}.cls-53{fill:#d100f5;}.cls-54{fill:#d000f5;}.cls-55{fill:#cf00f5;}.cls-56{fill:#ce00f5;}.cls-57{fill:#cd00f5;}.cls-58{fill:#cc00f6;}.cls-59{fill:#cb00f6;}.cls-60{fill:#ca00f6;}.cls-61{fill:#c900f6;}.cls-62{fill:#c800f6;}.cls-63{fill:#c700f6;}.cls-64{fill:#c600f6;}.cls-65{fill:#c500f6;}.cls-66{fill:#c400f6;}.cls-67{fill:#c300f6;}.cls-68{fill:#c200f6;}.cls-69{fill:#c100f7;}.cls-70{fill:#c000f7;}.cls-71{fill:#bf00f7;}.cls-72{fill:#be00f7;}.cls-73{fill:#bd00f7;}.cls-74{fill:#bc00f7;}.cls-75{fill:#bb00f7;}.cls-76{fill:#ba00f7;}.cls-77{fill:#b900f7;}.cls-78{fill:#b800f7;}.cls-79{fill:#b700f7;}.cls-80{fill:#b600f8;}.cls-81{fill:#b500f8;}.cls-82{fill:#b400f8;}.cls-83{fill:#b300f8;}.cls-84{fill:#b200f8;}.cls-85{fill:#b100f8;}.cls-86{fill:#af00f8;}.cls-87{fill:#ae00f8;}.cls-88{fill:#ad00f8;}.cls-89{fill:#ac00f8;}.cls-90{fill:#ab00f8;}.cls-91{fill:#aa00f8;}.cls-92{fill:#a900f9;}.cls-93{fill:#a800f9;}.cls-94{fill:#a700f9;}.cls-95{fill:#a600f9;}.cls-96{fill:#a500f9;}.cls-97{fill:#a400f9;}.cls-98{fill:#a300f9;}.cls-99{fill:#a200f9;}.cls-100{fill:#a100f9;}.cls-101{fill:#a000f9;}.cls-102{fill:#9f00f9;}.cls-103{fill:#9e00fa;}.cls-104{fill:#9d00fa;}.cls-105{fill:#9c00fa;}.cls-106{fill:#9b00fa;}.cls-107{fill:#9a00fa;}.cls-108{fill:#9900fa;}.cls-109{fill:#9800fa;}.cls-110{fill:#9700fa;}.cls-111{fill:#9600fa;}.cls-112{fill:#9500fa;}.cls-113{fill:#9400fa;}.cls-114{fill:#9300fb;}.cls-115{fill:#9200fb;}.cls-116{fill:#9100fb;}.cls-117{fill:#9000fb;}.cls-118{fill:#8f00fb;}.cls-119{fill:#8e00fb;}.cls-120{fill:#8d00fb;}.cls-121{fill:#8c00fb;}.cls-122{fill:#8b00fb;}.cls-123{fill:#8a00fb;}.cls-124{fill:#8900fb;}.cls-125{fill:#8800fc;}.cls-126{fill:#8700fc;}.cls-127{fill:#8600fc;}.cls-128{fill:#8500fc;}.cls-129{fill:#8400fc;}.cls-130{fill:#8300fc;}.cls-131{fill:#8200fc;}.cls-132{fill:#8100fc;}.cls-133{fill:#8000fc;}.cls-134{fill:#7f00fc;}.cls-135{fill:#7e00fc;}.cls-136{fill:#7d00fd;}.cls-137{fill:#7c00fd;}.cls-138{fill:#7b00fd;}.cls-139{fill:#7a00fd;}.cls-140{fill:#7900fd;}.cls-141{fill:#7800fd;}.cls-142{fill:#7700fd;}.cls-143{fill:#7600fd;}.cls-144{fill:#7500fd;}.cls-145{fill:#7400fd;}.cls-146{fill:#7300fd;}.cls-147{fill:#7200fd;}.cls-148{fill:#7100fe;}.cls-149{fill:#7000fe;}.cls-150{fill:#6f00fe;}.cls-151{fill:#6e00fe;}.cls-152{fill:#6d00fe;}.cls-153{fill:#6c00fe;}.cls-154{fill:#6b00fe;}.cls-155{fill:#6a00fe;}.cls-156{fill:#6900fe;}.cls-157{fill:#6800fe;}.cls-158{fill:#6700fe;}.cls-159{fill:#60f;}.cls-160{fill:#6500ff;}.cls-161{fill:#6400ff;}.cls-162{fill:#6300ff;}.cls-163{fill:#6200ff;}.cls-164{fill:#6100ff;}.cls-165{clip-path:url(#clip-path-2);}.cls-166{clip-path:url(#clip-path-3);}</style><linearGradient id="linear-gradient" x1="16.42" y1="148.13" x2="162.97" y2="28.13" gradientUnits="userSpaceOnUse"><stop offset="0" stop-color="#ff00f1"/><stop offset="1" stop-color="#6100ff"/></linearGradient><linearGradient id="linear-gradient-2" x1="49.57" y1="188.62" x2="196.13" y2="68.62" xlink:href="#linear-gradient"/><linearGradient id="linear-gradient-3" x1="0.59" y1="128.8" x2="147.14" y2="8.8" xlink:href="#linear-gradient"/><clipPath id="clip-path" transform="translate(0)"><path class="cls-1" d="M127.48,34.21a6.26,6.26,0,0,1-4.42,10.68H66.86a6.25,6.25,0,1,1,0-12.5h56.2A6.23,6.23,0,0,1,127.48,34.21Z"/></clipPath><clipPath id="clip-path-2" transform="translate(0)"><path class="cls-1" d="M66.88,134a6.26,6.26,0,0,1-4.42,10.68H6.25a6.25,6.25,0,0,1,0-12.5H62.46A6.24,6.24,0,0,1,66.88,134Z"/></clipPath><clipPath id="clip-path-3" transform="translate(0)"><path class="cls-1" d="M188.93,109.94a6.26,6.26,0,0,1-4.43,10.68H128.3a6.25,6.25,0,0,1,0-12.5h56.2A6.27,6.27,0,0,1,188.93,109.94Z"/></clipPath></defs><title>filter</title><g id="Calque_2" data-name="Calque 2"><g id="Charte_Graphique" data-name="Charte Graphique"><rect class="cls-2" x="82.76" y="6.01" width="12.2" height="153.65"/><rect class="cls-2" x="22.16" y="42.64" width="12.2" height="117.02"/><rect class="cls-2" x="156.4" y="42.64" width="12.2" height="117.02"/><path class="cls-3" d="M95,167.66a15.4,15.4,0,0,1-15.38-15.38V15.38A15.31,15.31,0,0,1,84.08,4.5h0a15.39,15.39,0,0,1,26.26,10.88v136.9A15.4,15.4,0,0,1,95,167.66ZM89.74,10.16a7.35,7.35,0,0,0-2.16,5.22v136.9a7.38,7.38,0,0,0,14.76,0V15.38a7.38,7.38,0,0,0-12.6-5.22Z" transform="translate(0)"/><path class="cls-4" d="M156.41,167.66A15.36,15.36,0,0,1,141,152.28V50A15.36,15.36,0,0,1,156.4,34.64h0A15.38,15.38,0,0,1,171.78,50V152.28a15.38,15.38,0,0,1-15.37,15.38Zm0-125A7.37,7.37,0,0,0,149,50V152.28a7.38,7.38,0,1,0,14.75,0V50a7.37,7.37,0,0,0-7.38-7.38Z" transform="translate(0)"/><path class="cls-5" d="M34.36,167.66A15.36,15.36,0,0,1,19,152.28V50a15.31,15.31,0,0,1,4.5-10.88h0a15.27,15.27,0,0,1,10.87-4.5h0A15.36,15.36,0,0,1,49.73,50V152.28a15.38,15.38,0,0,1-15.38,15.38ZM29.13,44.8A7.34,7.34,0,0,0,27,50V152.28a7.38,7.38,0,0,0,14.76,0V50a7.38,7.38,0,0,0-12.6-5.22Z" transform="translate(0)"/><g class="cls-6"><polygon class="cls-7" points="125.64 44.9 129.31 41.23 129.31 44.9 125.64 44.9"/><polygon class="cls-7" points="125.17 44.9 129.31 40.76 129.31 41.23 125.64 44.9 125.17 44.9"/><polygon class="cls-8" points="124.71 44.9 129.31 40.29 129.31 40.76 125.17 44.9 124.71 44.9"/><polygon class="cls-9" points="124.24 44.9 129.31 39.82 129.31 40.29 124.71 44.9 124.24 44.9"/><polygon class="cls-10" points="123.77 44.9 129.31 39.36 129.31 39.82 124.24 44.9 123.77 44.9"/><polygon class="cls-11" points="123.31 44.9 129.31 38.89 129.31 39.36 123.77 44.9 123.31 44.9"/><polygon class="cls-12" points="122.84 44.9 129.31 38.42 129.31 38.89 123.31 44.9 122.84 44.9"/><polygon class="cls-13" points="122.37 44.9 129.31 37.95 129.31 38.42 122.84 44.9 122.37 44.9"/><polygon class="cls-14" points="121.9 44.9 129.31 37.49 129.31 37.95 122.37 44.9 121.9 44.9"/><polygon class="cls-15" points="121.43 44.9 129.31 37.02 129.31 37.49 121.9 44.9 121.43 44.9"/><polygon class="cls-16" points="120.97 44.9 129.31 36.55 129.31 37.02 121.43 44.9 120.97 44.9"/><polygon class="cls-17" points="120.5 44.9 129.31 36.08 129.31 36.55 120.97 44.9 120.5 44.9"/><polygon class="cls-18" points="120.03 44.9 129.31 35.62 129.31 36.08 120.5 44.9 120.03 44.9"/><polygon class="cls-19" points="119.56 44.9 129.31 35.15 129.31 35.62 120.03 44.9 119.56 44.9"/><polygon class="cls-20" points="119.1 44.9 129.31 34.68 129.31 35.15 119.56 44.9 119.1 44.9"/><polygon class="cls-21" points="118.63 44.9 129.31 34.21 129.31 34.68 119.1 44.9 118.63 44.9"/><polygon class="cls-22" points="118.16 44.9 129.31 33.74 129.31 34.21 118.63 44.9 118.16 44.9"/><polygon class="cls-23" points="117.69 44.9 129.31 33.28 129.31 33.74 118.16 44.9 117.69 44.9"/><polygon class="cls-24" points="117.22 44.9 129.11 33.01 129.31 33.22 129.31 33.28 117.69 44.9 117.22 44.9"/><polygon class="cls-25" points="116.76 44.9 128.88 32.78 129.11 33.01 117.22 44.9 116.76 44.9"/><polygon class="cls-26" points="116.29 44.9 128.64 32.55 128.88 32.78 116.76 44.9 116.29 44.9"/><polygon class="cls-27" points="115.82 44.9 128.34 32.38 128.48 32.38 128.64 32.55 116.29 44.9 115.82 44.9"/><polygon class="cls-28" points="115.36 44.9 127.87 32.38 128.34 32.38 115.82 44.9 115.36 44.9"/><polygon class="cls-29" points="114.89 44.9 127.4 32.38 127.87 32.38 115.36 44.9 114.89 44.9"/><polygon class="cls-30" points="114.42 44.9 126.94 32.38 127.4 32.38 114.89 44.9 114.42 44.9"/><polygon class="cls-31" points="113.95 44.9 126.47 32.38 126.94 32.38 114.42 44.9 113.95 44.9"/><polygon class="cls-32" points="113.48 44.9 126 32.38 126.47 32.38 113.95 44.9 113.48 44.9"/><polygon class="cls-33" points="113.02 44.9 125.53 32.38 126 32.38 113.48 44.9 113.02 44.9"/><polygon class="cls-34" points="112.55 44.9 125.06 32.38 125.53 32.38 113.02 44.9 112.55 44.9"/><polygon class="cls-35" points="112.08 44.9 124.6 32.38 125.06 32.38 112.55 44.9 112.08 44.9"/><polygon class="cls-36" points="111.61 44.9 124.13 32.38 124.6 32.38 112.08 44.9 111.61 44.9"/><polygon class="cls-37" points="111.15 44.9 123.66 32.38 124.13 32.38 111.61 44.9 111.15 44.9"/><polygon class="cls-38" points="110.68 44.9 123.19 32.38 123.66 32.38 111.15 44.9 110.68 44.9"/><polygon class="cls-39" points="110.21 44.9 122.73 32.38 123.19 32.38 110.68 44.9 110.21 44.9"/><polygon class="cls-40" points="109.74 44.9 122.26 32.38 122.73 32.38 110.21 44.9 109.74 44.9"/><polygon class="cls-41" points="109.28 44.9 121.79 32.38 122.26 32.38 109.74 44.9 109.28 44.9"/><polygon class="cls-42" points="108.81 44.9 121.32 32.38 121.79 32.38 109.28 44.9 108.81 44.9"/><polygon class="cls-43" points="108.34 44.9 120.86 32.38 121.32 32.38 108.81 44.9 108.34 44.9"/><polygon class="cls-44" points="107.87 44.9 120.39 32.38 120.86 32.38 108.34 44.9 107.87 44.9"/><polygon class="cls-45" points="107.41 44.9 119.92 32.38 120.39 32.38 107.87 44.9 107.41 44.9"/><polygon class="cls-46" points="106.94 44.9 119.45 32.38 119.92 32.38 107.41 44.9 106.94 44.9"/><polygon class="cls-47" points="106.47 44.9 118.99 32.38 119.45 32.38 106.94 44.9 106.47 44.9"/><polygon class="cls-48" points="106 44.9 118.52 32.38 118.99 32.38 106.47 44.9 106 44.9"/><polygon class="cls-49" points="105.53 44.9 118.05 32.38 118.52 32.38 106 44.9 105.53 44.9"/><polygon class="cls-50" points="105.07 44.9 117.58 32.38 118.05 32.38 105.53 44.9 105.07 44.9"/><polygon class="cls-51" points="104.6 44.9 117.11 32.38 117.58 32.38 105.07 44.9 104.6 44.9"/><polygon class="cls-52" points="104.13 44.9 116.65 32.38 117.11 32.38 104.6 44.9 104.13 44.9"/><polygon class="cls-53" points="103.66 44.9 116.18 32.38 116.65 32.38 104.13 44.9 103.66 44.9"/><polygon class="cls-54" points="103.2 44.9 115.71 32.38 116.18 32.38 103.66 44.9 103.2 44.9"/><polygon class="cls-55" points="102.73 44.9 115.25 32.38 115.71 32.38 103.2 44.9 102.73 44.9"/><polygon class="cls-56" points="102.26 44.9 114.78 32.38 115.25 32.38 102.73 44.9 102.26 44.9"/><polygon class="cls-57" points="101.79 44.9 114.31 32.38 114.78 32.38 102.26 44.9 101.79 44.9"/><polygon class="cls-58" points="101.33 44.9 113.84 32.38 114.31 32.38 101.79 44.9 101.33 44.9"/><polygon class="cls-59" points="100.86 44.9 113.37 32.38 113.84 32.38 101.33 44.9 100.86 44.9"/><polygon class="cls-60" points="100.39 44.9 112.91 32.38 113.37 32.38 100.86 44.9 100.39 44.9"/><polygon class="cls-61" points="99.92 44.9 112.44 32.38 112.91 32.38 100.39 44.9 99.92 44.9"/><polygon class="cls-62" points="99.45 44.9 111.97 32.38 112.44 32.38 99.92 44.9 99.45 44.9"/><polygon class="cls-63" points="98.99 44.9 111.5 32.38 111.97 32.38 99.45 44.9 98.99 44.9"/><polygon class="cls-64" points="98.52 44.9 111.04 32.38 111.5 32.38 98.99 44.9 98.52 44.9"/><polygon class="cls-65" points="98.05 44.9 110.57 32.38 111.04 32.38 98.52 44.9 98.05 44.9"/><polygon class="cls-66" points="97.58 44.9 110.1 32.38 110.57 32.38 98.05 44.9 97.58 44.9"/><polygon class="cls-67" points="97.12 44.9 109.63 32.38 110.1 32.38 97.58 44.9 97.12 44.9"/><polygon class="cls-68" points="96.65 44.9 109.17 32.38 109.63 32.38 97.12 44.9 96.65 44.9"/><polygon class="cls-69" points="96.18 44.9 108.7 32.38 109.17 32.38 96.65 44.9 96.18 44.9"/><polygon class="cls-70" points="95.71 44.9 108.23 32.38 108.7 32.38 96.18 44.9 95.71 44.9"/><polygon class="cls-71" points="95.25 44.9 107.76 32.38 108.23 32.38 95.71 44.9 95.25 44.9"/><polygon class="cls-72" points="94.78 44.9 107.3 32.38 107.76 32.38 95.25 44.9 94.78 44.9"/><polygon class="cls-73" points="94.31 44.9 106.83 32.38 107.3 32.38 94.78 44.9 94.31 44.9"/><polygon class="cls-74" points="93.84 44.9 106.36 32.38 106.83 32.38 94.31 44.9 93.84 44.9"/><polygon class="cls-75" points="93.38 44.9 105.89 32.38 106.36 32.38 93.84 44.9 93.38 44.9"/><polygon class="cls-76" points="92.91 44.9 105.42 32.38 105.89 32.38 93.38 44.9 92.91 44.9"/><polygon class="cls-77" points="92.44 44.9 104.96 32.38 105.42 32.38 92.91 44.9 92.44 44.9"/><polygon class="cls-78" points="91.97 44.9 104.49 32.38 104.96 32.38 92.44 44.9 91.97 44.9"/><polygon class="cls-79" points="91.5 44.9 104.02 32.38 104.49 32.38 91.97 44.9 91.5 44.9"/><polygon class="cls-80" points="91.04 44.9 103.55 32.38 104.02 32.38 91.5 44.9 91.04 44.9"/><polygon class="cls-81" points="90.57 44.9 103.09 32.38 103.55 32.38 91.04 44.9 90.57 44.9"/><polygon class="cls-82" points="90.1 44.9 102.62 32.38 103.09 32.38 90.57 44.9 90.1 44.9"/><polygon class="cls-83" points="89.64 44.9 102.15 32.38 102.62 32.38 90.1 44.9 89.64 44.9"/><polygon class="cls-84" points="89.17 44.9 101.68 32.38 102.15 32.38 89.64 44.9 89.17 44.9"/><polygon class="cls-85" points="88.7 44.9 101.22 32.38 101.68 32.38 89.17 44.9 88.7 44.9"/><polygon class="cls-86" points="88.23 44.9 100.75 32.38 101.22 32.38 88.7 44.9 88.23 44.9"/><polygon class="cls-87" points="87.76 44.9 100.28 32.38 100.75 32.38 88.23 44.9 87.76 44.9"/><polygon class="cls-88" points="87.3 44.9 99.81 32.38 100.28 32.38 87.76 44.9 87.3 44.9"/><polygon class="cls-89" points="86.83 44.9 99.34 32.38 99.81 32.38 87.3 44.9 86.83 44.9"/><polygon class="cls-90" points="86.36 44.9 98.88 32.38 99.34 32.38 86.83 44.9 86.36 44.9"/><polygon class="cls-91" points="85.89 44.9 98.41 32.38 98.88 32.38 86.36 44.9 85.89 44.9"/><polygon class="cls-92" points="85.43 44.9 97.94 32.38 98.41 32.38 85.89 44.9 85.43 44.9"/><polygon class="cls-93" points="84.96 44.9 97.47 32.38 97.94 32.38 85.43 44.9 84.96 44.9"/><polygon class="cls-94" points="84.49 44.9 97.01 32.38 97.47 32.38 84.96 44.9 84.49 44.9"/><polygon class="cls-95" points="84.02 44.9 96.54 32.38 97.01 32.38 84.49 44.9 84.02 44.9"/><polygon class="cls-96" points="83.56 44.9 96.07 32.38 96.54 32.38 84.02 44.9 83.56 44.9"/><polygon class="cls-97" points="83.09 44.9 95.6 32.38 96.07 32.38 83.56 44.9 83.09 44.9"/><polygon class="cls-98" points="82.62 44.9 95.14 32.38 95.6 32.38 83.09 44.9 82.62 44.9"/><polygon class="cls-99" points="82.15 44.9 94.67 32.38 95.14 32.38 82.62 44.9 82.15 44.9"/><polygon class="cls-100" points="81.69 44.9 94.2 32.38 94.67 32.38 82.15 44.9 81.69 44.9"/><polygon class="cls-101" points="81.22 44.9 93.73 32.38 94.2 32.38 81.69 44.9 81.22 44.9"/><polygon class="cls-102" points="80.75 44.9 93.27 32.38 93.73 32.38 81.22 44.9 80.75 44.9"/><polygon class="cls-103" points="80.28 44.9 92.8 32.38 93.27 32.38 80.75 44.9 80.28 44.9"/><polygon class="cls-104" points="79.81 44.9 92.33 32.38 92.8 32.38 80.28 44.9 79.81 44.9"/><polygon class="cls-105" points="79.35 44.9 91.86 32.38 92.33 32.38 79.81 44.9 79.35 44.9"/><polygon class="cls-106" points="78.88 44.9 91.39 32.38 91.86 32.38 79.35 44.9 78.88 44.9"/><polygon class="cls-107" points="78.41 44.9 90.93 32.38 91.39 32.38 78.88 44.9 78.41 44.9"/><polygon class="cls-108" points="77.94 44.9 90.46 32.38 90.93 32.38 78.41 44.9 77.94 44.9"/><polygon class="cls-109" points="77.48 44.9 89.99 32.38 90.46 32.38 77.94 44.9 77.48 44.9"/><polygon class="cls-110" points="77.01 44.9 89.53 32.38 89.99 32.38 77.48 44.9 77.01 44.9"/><polygon class="cls-111" points="76.54 44.9 89.06 32.38 89.53 32.38 77.01 44.9 76.54 44.9"/><polygon class="cls-112" points="76.07 44.9 88.59 32.38 89.06 32.38 76.54 44.9 76.07 44.9"/><polygon class="cls-113" points="75.61 44.9 88.12 32.38 88.59 32.38 76.07 44.9 75.61 44.9"/><polygon class="cls-114" points="75.14 44.9 87.65 32.38 88.12 32.38 75.61 44.9 75.14 44.9"/><polygon class="cls-115" points="74.67 44.9 87.19 32.38 87.65 32.38 75.14 44.9 74.67 44.9"/><polygon class="cls-116" points="74.2 44.9 86.72 32.38 87.19 32.38 74.67 44.9 74.2 44.9"/><polygon class="cls-117" points="73.73 44.9 86.25 32.38 86.72 32.38 74.2 44.9 73.73 44.9"/><polygon class="cls-118" points="73.27 44.9 85.78 32.38 86.25 32.38 73.73 44.9 73.27 44.9"/><polygon class="cls-119" points="72.8 44.9 85.32 32.38 85.78 32.38 73.27 44.9 72.8 44.9"/><polygon class="cls-120" points="72.33 44.9 84.85 32.38 85.32 32.38 72.8 44.9 72.33 44.9"/><polygon class="cls-121" points="71.86 44.9 84.38 32.38 84.85 32.38 72.33 44.9 71.86 44.9"/><polygon class="cls-122" points="71.4 44.9 83.91 32.38 84.38 32.38 71.86 44.9 71.4 44.9"/><polygon class="cls-123" points="70.93 44.9 83.44 32.38 83.91 32.38 71.4 44.9 70.93 44.9"/><polygon class="cls-124" points="70.46 44.9 82.98 32.38 83.44 32.38 70.93 44.9 70.46 44.9"/><polygon class="cls-125" points="69.99 44.9 82.51 32.38 82.98 32.38 70.46 44.9 69.99 44.9"/><polygon class="cls-126" points="69.53 44.9 82.04 32.38 82.51 32.38 69.99 44.9 69.53 44.9"/><polygon class="cls-127" points="69.06 44.9 81.58 32.38 82.04 32.38 69.53 44.9 69.06 44.9"/><polygon class="cls-128" points="68.59 44.9 81.11 32.38 81.58 32.38 69.06 44.9 68.59 44.9"/><polygon class="cls-129" points="68.12 44.9 80.64 32.38 81.11 32.38 68.59 44.9 68.12 44.9"/><polygon class="cls-130" points="67.66 44.9 80.17 32.38 80.64 32.38 68.12 44.9 67.66 44.9"/><polygon class="cls-131" points="67.19 44.9 79.7 32.38 80.17 32.38 67.66 44.9 67.19 44.9"/><polygon class="cls-132" points="66.72 44.9 79.24 32.38 79.7 32.38 67.19 44.9 66.72 44.9"/><polygon class="cls-133" points="66.25 44.9 78.77 32.38 79.24 32.38 66.72 44.9 66.25 44.9"/><polygon class="cls-134" points="65.78 44.9 78.3 32.38 78.77 32.38 66.25 44.9 65.78 44.9"/><polygon class="cls-135" points="65.32 44.9 77.83 32.38 78.3 32.38 65.78 44.9 65.32 44.9"/><polygon class="cls-136" points="64.85 44.9 77.37 32.38 77.83 32.38 65.32 44.9 64.85 44.9"/><polygon class="cls-137" points="64.38 44.9 76.9 32.38 77.37 32.38 64.85 44.9 64.38 44.9"/><polygon class="cls-138" points="63.91 44.9 76.43 32.38 76.9 32.38 64.38 44.9 63.91 44.9"/><polygon class="cls-139" points="63.45 44.9 75.96 32.38 76.43 32.38 63.91 44.9 63.45 44.9"/><polygon class="cls-140" points="62.98 44.9 75.5 32.38 75.96 32.38 63.45 44.9 62.98 44.9"/><polygon class="cls-141" points="62.51 44.9 75.03 32.38 75.5 32.38 62.98 44.9 62.51 44.9"/><polygon class="cls-142" points="62.04 44.9 74.56 32.38 75.03 32.38 62.51 44.9 62.04 44.9"/><polygon class="cls-143" points="61.58 44.9 74.09 32.38 74.56 32.38 62.04 44.9 61.58 44.9"/><polygon class="cls-144" points="61.11 44.9 73.63 32.38 74.09 32.38 61.58 44.9 61.11 44.9"/><polygon class="cls-145" points="60.64 44.9 73.16 32.38 73.63 32.38 61.11 44.9 60.64 44.9"/><polygon class="cls-146" points="60.6 44.47 72.69 32.38 73.16 32.38 60.64 44.9 60.6 44.9 60.6 44.47"/><polygon class="cls-147" points="60.6 44 72.22 32.38 72.69 32.38 60.6 44.47 60.6 44"/><polygon class="cls-148" points="60.6 43.53 71.75 32.38 72.22 32.38 60.6 44 60.6 43.53"/><polygon class="cls-149" points="60.6 43.07 71.29 32.38 71.75 32.38 60.6 43.53 60.6 43.07"/><polygon class="cls-150" points="60.6 42.6 70.82 32.38 71.29 32.38 60.6 43.07 60.6 42.6"/><polygon class="cls-151" points="60.6 42.13 70.35 32.38 70.82 32.38 60.6 42.6 60.6 42.13"/><polygon class="cls-152" points="60.6 41.66 69.88 32.38 70.35 32.38 60.6 42.13 60.6 41.66"/><polygon class="cls-153" points="60.6 41.2 69.42 32.38 69.88 32.38 60.6 41.66 60.6 41.2"/><polygon class="cls-154" points="60.6 40.73 68.95 32.38 69.42 32.38 60.6 41.2 60.6 40.73"/><polygon class="cls-155" points="60.6 40.26 68.48 32.38 68.95 32.38 60.6 40.73 60.6 40.26"/><polygon class="cls-156" points="60.6 39.79 68.01 32.38 68.48 32.38 60.6 40.26 60.6 39.79"/><polygon class="cls-157" points="60.6 39.32 67.55 32.38 68.01 32.38 60.6 39.79 60.6 39.32"/><polygon class="cls-158" points="60.6 38.86 67.08 32.38 67.55 32.38 60.6 39.32 60.6 38.86"/><polygon class="cls-159" points="60.6 38.39 66.61 32.38 67.08 32.38 60.6 38.86 60.6 38.39"/><polygon class="cls-160" points="60.6 37.92 66.14 32.38 66.61 32.38 60.6 38.39 60.6 37.92"/><polygon class="cls-161" points="60.6 37.45 65.67 32.38 66.14 32.38 60.6 37.92 60.6 37.45"/><polygon class="cls-162" points="60.6 36.99 65.21 32.38 65.67 32.38 60.6 37.45 60.6 36.99"/><polygon class="cls-163" points="60.6 36.52 64.74 32.38 65.21 32.38 60.6 36.99 60.6 36.52"/><polygon class="cls-164" points="60.6 36.05 64.27 32.38 64.74 32.38 60.6 36.52 60.6 36.05"/><polygon class="cls-164" points="64.27 32.38 60.6 36.05 60.6 32.38 64.27 32.38"/></g><g class="cls-165"><polygon class="cls-7" points="65.04 144.68 68.71 141.01 68.71 144.68 65.04 144.68"/><polygon class="cls-7" points="64.57 144.68 68.71 140.54 68.71 141.01 65.04 144.68 64.57 144.68"/><polygon class="cls-8" points="64.11 144.68 68.71 140.07 68.71 140.54 64.57 144.68 64.11 144.68"/><polygon class="cls-9" points="63.64 144.68 68.71 139.6 68.71 140.07 64.11 144.68 63.64 144.68"/><polygon class="cls-10" points="63.17 144.68 68.71 139.14 68.71 139.6 63.64 144.68 63.17 144.68"/><polygon class="cls-11" points="62.7 144.68 68.71 138.67 68.71 139.14 63.17 144.68 62.7 144.68"/><polygon class="cls-12" points="62.23 144.68 68.71 138.2 68.71 138.67 62.7 144.68 62.23 144.68"/><polygon class="cls-13" points="61.77 144.68 68.71 137.73 68.71 138.2 62.23 144.68 61.77 144.68"/><polygon class="cls-14" points="61.3 144.68 68.71 137.26 68.71 137.73 61.77 144.68 61.3 144.68"/><polygon class="cls-15" points="60.83 144.68 68.71 136.8 68.71 137.26 61.3 144.68 60.83 144.68"/><polygon class="cls-16" points="60.36 144.68 68.71 136.33 68.71 136.8 60.83 144.68 60.36 144.68"/><polygon class="cls-17" points="59.9 144.68 68.71 135.86 68.71 136.33 60.36 144.68 59.9 144.68"/><polygon class="cls-18" points="59.43 144.68 68.71 135.4 68.71 135.86 59.9 144.68 59.43 144.68"/><polygon class="cls-19" points="58.96 144.68 68.71 134.93 68.71 135.4 59.43 144.68 58.96 144.68"/><polygon class="cls-20" points="58.49 144.68 68.71 134.46 68.71 134.93 58.96 144.68 58.49 144.68"/><polygon class="cls-21" points="58.02 144.68 68.71 133.99 68.71 134.46 58.49 144.68 58.02 144.68"/><polygon class="cls-22" points="57.56 144.68 68.71 133.52 68.71 133.99 58.02 144.68 57.56 144.68"/><polygon class="cls-23" points="57.09 144.68 68.71 133.06 68.71 133.52 57.56 144.68 57.09 144.68"/><polygon class="cls-24" points="56.62 144.68 68.51 132.79 68.71 133 68.71 133.06 57.09 144.68 56.62 144.68"/><polygon class="cls-25" points="56.16 144.68 68.27 132.56 68.51 132.79 56.62 144.68 56.16 144.68"/><polygon class="cls-26" points="55.69 144.68 68.04 132.32 68.27 132.56 56.16 144.68 55.69 144.68"/><polygon class="cls-27" points="55.22 144.68 67.74 132.16 67.88 132.16 68.04 132.32 55.69 144.68 55.22 144.68"/><polygon class="cls-28" points="54.75 144.68 67.27 132.16 67.74 132.16 55.22 144.68 54.75 144.68"/><polygon class="cls-29" points="54.28 144.68 66.8 132.16 67.27 132.16 54.75 144.68 54.28 144.68"/><polygon class="cls-30" points="53.82 144.68 66.33 132.16 66.8 132.16 54.28 144.68 53.82 144.68"/><polygon class="cls-31" points="53.35 144.68 65.86 132.16 66.33 132.16 53.82 144.68 53.35 144.68"/><polygon class="cls-32" points="52.88 144.68 65.4 132.16 65.86 132.16 53.35 144.68 52.88 144.68"/><polygon class="cls-33" points="52.41 144.68 64.93 132.16 65.4 132.16 52.88 144.68 52.41 144.68"/><polygon class="cls-34" points="51.95 144.68 64.46 132.16 64.93 132.16 52.41 144.68 51.95 144.68"/><polygon class="cls-35" points="51.48 144.68 63.99 132.16 64.46 132.16 51.95 144.68 51.48 144.68"/><polygon class="cls-36" points="51.01 144.68 63.53 132.16 63.99 132.16 51.48 144.68 51.01 144.68"/><polygon class="cls-37" points="50.54 144.68 63.06 132.16 63.53 132.16 51.01 144.68 50.54 144.68"/><polygon class="cls-38" points="50.08 144.68 62.59 132.16 63.06 132.16 50.54 144.68 50.08 144.68"/><polygon class="cls-39" points="49.61 144.68 62.12 132.16 62.59 132.16 50.08 144.68 49.61 144.68"/><polygon class="cls-40" points="49.14 144.68 61.66 132.16 62.12 132.16 49.61 144.68 49.14 144.68"/><polygon class="cls-41" points="48.67 144.68 61.19 132.16 61.66 132.16 49.14 144.68 48.67 144.68"/><polygon class="cls-42" points="48.2 144.68 60.72 132.16 61.19 132.16 48.67 144.68 48.2 144.68"/><polygon class="cls-43" points="47.74 144.68 60.25 132.16 60.72 132.16 48.2 144.68 47.74 144.68"/><polygon class="cls-44" points="47.27 144.68 59.79 132.16 60.25 132.16 47.74 144.68 47.27 144.68"/><polygon class="cls-45" points="46.8 144.68 59.32 132.16 59.79 132.16 47.27 144.68 46.8 144.68"/><polygon class="cls-46" points="46.33 144.68 58.85 132.16 59.32 132.16 46.8 144.68 46.33 144.68"/><polygon class="cls-47" points="45.87 144.68 58.38 132.16 58.85 132.16 46.33 144.68 45.87 144.68"/><polygon class="cls-48" points="45.4 144.68 57.91 132.16 58.38 132.16 45.87 144.68 45.4 144.68"/><polygon class="cls-49" points="44.93 144.68 57.45 132.16 57.91 132.16 45.4 144.68 44.93 144.68"/><polygon class="cls-50" points="44.46 144.68 56.98 132.16 57.45 132.16 44.93 144.68 44.46 144.68"/><polygon class="cls-51" points="44 144.68 56.51 132.16 56.98 132.16 44.46 144.68 44 144.68"/><polygon class="cls-52" points="43.53 144.68 56.05 132.16 56.51 132.16 44 144.68 43.53 144.68"/><polygon class="cls-53" points="43.06 144.68 55.58 132.16 56.05 132.16 43.53 144.68 43.06 144.68"/><polygon class="cls-54" points="42.59 144.68 55.11 132.16 55.58 132.16 43.06 144.68 42.59 144.68"/><polygon class="cls-55" points="42.13 144.68 54.64 132.16 55.11 132.16 42.59 144.68 42.13 144.68"/><polygon class="cls-56" points="41.66 144.68 54.17 132.16 54.64 132.16 42.13 144.68 41.66 144.68"/><polygon class="cls-57" points="41.19 144.68 53.71 132.16 54.17 132.16 41.66 144.68 41.19 144.68"/><polygon class="cls-58" points="40.72 144.68 53.24 132.16 53.71 132.16 41.19 144.68 40.72 144.68"/><polygon class="cls-59" points="40.26 144.68 52.77 132.16 53.24 132.16 40.72 144.68 40.26 144.68"/><polygon class="cls-60" points="39.79 144.68 52.3 132.16 52.77 132.16 40.26 144.68 39.79 144.68"/><polygon class="cls-61" points="39.32 144.68 51.84 132.16 52.3 132.16 39.79 144.68 39.32 144.68"/><polygon class="cls-62" points="38.85 144.68 51.37 132.16 51.84 132.16 39.32 144.68 38.85 144.68"/><polygon class="cls-63" points="38.38 144.68 50.9 132.16 51.37 132.16 38.85 144.68 38.38 144.68"/><polygon class="cls-64" points="37.92 144.68 50.43 132.16 50.9 132.16 38.38 144.68 37.92 144.68"/><polygon class="cls-65" points="37.45 144.68 49.97 132.16 50.43 132.16 37.92 144.68 37.45 144.68"/><polygon class="cls-66" points="36.98 144.68 49.5 132.16 49.97 132.16 37.45 144.68 36.98 144.68"/><polygon class="cls-67" points="36.51 144.68 49.03 132.16 49.5 132.16 36.98 144.68 36.51 144.68"/><polygon class="cls-68" points="36.05 144.68 48.56 132.16 49.03 132.16 36.51 144.68 36.05 144.68"/><polygon class="cls-69" points="35.58 144.68 48.09 132.16 48.56 132.16 36.05 144.68 35.58 144.68"/><polygon class="cls-70" points="35.11 144.68 47.63 132.16 48.09 132.16 35.58 144.68 35.11 144.68"/><polygon class="cls-71" points="34.64 144.68 47.16 132.16 47.63 132.16 35.11 144.68 34.64 144.68"/><polygon class="cls-72" points="34.18 144.68 46.69 132.16 47.16 132.16 34.64 144.68 34.18 144.68"/><polygon class="cls-73" points="33.71 144.68 46.22 132.16 46.69 132.16 34.18 144.68 33.71 144.68"/><polygon class="cls-74" points="33.24 144.68 45.76 132.16 46.22 132.16 33.71 144.68 33.24 144.68"/><polygon class="cls-75" points="32.77 144.68 45.29 132.16 45.76 132.16 33.24 144.68 32.77 144.68"/><polygon class="cls-76" points="32.3 144.68 44.82 132.16 45.29 132.16 32.77 144.68 32.3 144.68"/><polygon class="cls-77" points="31.84 144.68 44.35 132.16 44.82 132.16 32.3 144.68 31.84 144.68"/><polygon class="cls-78" points="31.37 144.68 43.89 132.16 44.35 132.16 31.84 144.68 31.37 144.68"/><polygon class="cls-79" points="30.9 144.68 43.42 132.16 43.89 132.16 31.37 144.68 30.9 144.68"/><polygon class="cls-80" points="30.43 144.68 42.95 132.16 43.42 132.16 30.9 144.68 30.43 144.68"/><polygon class="cls-81" points="29.97 144.68 42.48 132.16 42.95 132.16 30.43 144.68 29.97 144.68"/><polygon class="cls-82" points="29.5 144.68 42.02 132.16 42.48 132.16 29.97 144.68 29.5 144.68"/><polygon class="cls-83" points="29.03 144.68 41.55 132.16 42.02 132.16 29.5 144.68 29.03 144.68"/><polygon class="cls-84" points="28.56 144.68 41.08 132.16 41.55 132.16 29.03 144.68 28.56 144.68"/><polygon class="cls-85" points="28.1 144.68 40.61 132.16 41.08 132.16 28.56 144.68 28.1 144.68"/><polygon class="cls-86" points="27.63 144.68 40.15 132.16 40.61 132.16 28.1 144.68 27.63 144.68"/><polygon class="cls-87" points="27.16 144.68 39.68 132.16 40.15 132.16 27.63 144.68 27.16 144.68"/><polygon class="cls-88" points="26.69 144.68 39.21 132.16 39.68 132.16 27.16 144.68 26.69 144.68"/><polygon class="cls-89" points="26.23 144.68 38.74 132.16 39.21 132.16 26.69 144.68 26.23 144.68"/><polygon class="cls-90" points="25.76 144.68 38.27 132.16 38.74 132.16 26.23 144.68 25.76 144.68"/><polygon class="cls-91" points="25.29 144.68 37.81 132.16 38.27 132.16 25.76 144.68 25.29 144.68"/><polygon class="cls-92" points="24.82 144.68 37.34 132.16 37.81 132.16 25.29 144.68 24.82 144.68"/><polygon class="cls-93" points="24.36 144.68 36.87 132.16 37.34 132.16 24.82 144.68 24.36 144.68"/><polygon class="cls-94" points="23.89 144.68 36.4 132.16 36.87 132.16 24.36 144.68 23.89 144.68"/><polygon class="cls-95" points="23.42 144.68 35.94 132.16 36.4 132.16 23.89 144.68 23.42 144.68"/><polygon class="cls-96" points="22.95 144.68 35.47 132.16 35.94 132.16 23.42 144.68 22.95 144.68"/><polygon class="cls-97" points="22.48 144.68 35 132.16 35.47 132.16 22.95 144.68 22.48 144.68"/><polygon class="cls-98" points="22.02 144.68 34.53 132.16 35 132.16 22.48 144.68 22.02 144.68"/><polygon class="cls-99" points="21.55 144.68 34.07 132.16 34.53 132.16 22.02 144.68 21.55 144.68"/><polygon class="cls-100" points="21.08 144.68 33.6 132.16 34.07 132.16 21.55 144.68 21.08 144.68"/><polygon class="cls-101" points="20.61 144.68 33.13 132.16 33.6 132.16 21.08 144.68 20.61 144.68"/><polygon class="cls-102" points="20.15 144.68 32.66 132.16 33.13 132.16 20.61 144.68 20.15 144.68"/><polygon class="cls-103" points="19.68 144.68 32.2 132.16 32.66 132.16 20.15 144.68 19.68 144.68"/><polygon class="cls-104" points="19.21 144.68 31.73 132.16 32.2 132.16 19.68 144.68 19.21 144.68"/><polygon class="cls-105" points="18.74 144.68 31.26 132.16 31.73 132.16 19.21 144.68 18.74 144.68"/><polygon class="cls-106" points="18.28 144.68 30.79 132.16 31.26 132.16 18.74 144.68 18.28 144.68"/><polygon class="cls-107" points="17.81 144.68 30.32 132.16 30.79 132.16 18.28 144.68 17.81 144.68"/><polygon class="cls-108" points="17.34 144.68 29.86 132.16 30.32 132.16 17.81 144.68 17.34 144.68"/><polygon class="cls-109" points="16.87 144.68 29.39 132.16 29.86 132.16 17.34 144.68 16.87 144.68"/><polygon class="cls-110" points="16.41 144.68 28.92 132.16 29.39 132.16 16.87 144.68 16.41 144.68"/><polygon class="cls-111" points="15.94 144.68 28.45 132.16 28.92 132.16 16.41 144.68 15.94 144.68"/><polygon class="cls-112" points="15.47 144.68 27.99 132.16 28.45 132.16 15.94 144.68 15.47 144.68"/><polygon class="cls-113" points="15 144.68 27.52 132.16 27.99 132.16 15.47 144.68 15 144.68"/><polygon class="cls-114" points="14.54 144.68 27.05 132.16 27.52 132.16 15 144.68 14.54 144.68"/><polygon class="cls-115" points="14.07 144.68 26.58 132.16 27.05 132.16 14.54 144.68 14.07 144.68"/><polygon class="cls-116" points="13.6 144.68 26.12 132.16 26.58 132.16 14.07 144.68 13.6 144.68"/><polygon class="cls-117" points="13.13 144.68 25.65 132.16 26.12 132.16 13.6 144.68 13.13 144.68"/><polygon class="cls-118" points="12.66 144.68 25.18 132.16 25.65 132.16 13.13 144.68 12.66 144.68"/><polygon class="cls-119" points="12.2 144.68 24.71 132.16 25.18 132.16 12.66 144.68 12.2 144.68"/><polygon class="cls-120" points="11.73 144.68 24.25 132.16 24.71 132.16 12.2 144.68 11.73 144.68"/><polygon class="cls-121" points="11.26 144.68 23.78 132.16 24.25 132.16 11.73 144.68 11.26 144.68"/><polygon class="cls-122" points="10.79 144.68 23.31 132.16 23.78 132.16 11.26 144.68 10.79 144.68"/><polygon class="cls-123" points="10.33 144.68 22.84 132.16 23.31 132.16 10.79 144.68 10.33 144.68"/><polygon class="cls-124" points="9.86 144.68 22.38 132.16 22.84 132.16 10.33 144.68 9.86 144.68"/><polygon class="cls-125" points="9.39 144.68 21.91 132.16 22.38 132.16 9.86 144.68 9.39 144.68"/><polygon class="cls-126" points="8.92 144.68 21.44 132.16 21.91 132.16 9.39 144.68 8.92 144.68"/><polygon class="cls-127" points="8.46 144.68 20.97 132.16 21.44 132.16 8.92 144.68 8.46 144.68"/><polygon class="cls-128" points="7.99 144.68 20.5 132.16 20.97 132.16 8.46 144.68 7.99 144.68"/><polygon class="cls-129" points="7.52 144.68 20.04 132.16 20.5 132.16 7.99 144.68 7.52 144.68"/><polygon class="cls-130" points="7.05 144.68 19.57 132.16 20.04 132.16 7.52 144.68 7.05 144.68"/><polygon class="cls-131" points="6.58 144.68 19.1 132.16 19.57 132.16 7.05 144.68 6.58 144.68"/><polygon class="cls-132" points="6.12 144.68 18.63 132.16 19.1 132.16 6.58 144.68 6.12 144.68"/><polygon class="cls-133" points="5.65 144.68 18.17 132.16 18.63 132.16 6.12 144.68 5.65 144.68"/><polygon class="cls-134" points="5.18 144.68 17.7 132.16 18.17 132.16 5.65 144.68 5.18 144.68"/><polygon class="cls-135" points="4.71 144.68 17.23 132.16 17.7 132.16 5.18 144.68 4.71 144.68"/><polygon class="cls-136" points="4.25 144.68 16.76 132.16 17.23 132.16 4.71 144.68 4.25 144.68"/><polygon class="cls-137" points="3.78 144.68 16.3 132.16 16.76 132.16 4.25 144.68 3.78 144.68"/><polygon class="cls-138" points="3.31 144.68 15.83 132.16 16.3 132.16 3.78 144.68 3.31 144.68"/><polygon class="cls-139" points="2.84 144.68 15.36 132.16 15.83 132.16 3.31 144.68 2.84 144.68"/><polygon class="cls-140" points="2.38 144.68 14.89 132.16 15.36 132.16 2.84 144.68 2.38 144.68"/><polygon class="cls-141" points="1.91 144.68 14.43 132.16 14.89 132.16 2.38 144.68 1.91 144.68"/><polygon class="cls-142" points="1.44 144.68 13.96 132.16 14.43 132.16 1.91 144.68 1.44 144.68"/><polygon class="cls-143" points="0.97 144.68 13.49 132.16 13.96 132.16 1.44 144.68 0.97 144.68"/><polygon class="cls-144" points="0.51 144.68 13.02 132.16 13.49 132.16 0.97 144.68 0.51 144.68"/><polygon class="cls-145" points="0.04 144.68 12.55 132.16 13.02 132.16 0.51 144.68 0.04 144.68"/><polygon class="cls-146" points="0 144.25 12.09 132.16 12.55 132.16 0.04 144.68 0 144.68 0 144.25"/><polygon class="cls-147" points="0 143.78 11.62 132.16 12.09 132.16 0 144.25 0 143.78"/><polygon class="cls-148" points="0 143.31 11.15 132.16 11.62 132.16 0 143.78 0 143.31"/><polygon class="cls-149" points="0 142.84 10.68 132.16 11.15 132.16 0 143.31 0 142.84"/><polygon class="cls-150" points="0 142.38 10.22 132.16 10.68 132.16 0 142.84 0 142.38"/><polygon class="cls-151" points="0 141.91 9.75 132.16 10.22 132.16 0 142.38 0 141.91"/><polygon class="cls-152" points="0 141.44 9.28 132.16 9.75 132.16 0 141.91 0 141.44"/><polygon class="cls-153" points="0 140.97 8.81 132.16 9.28 132.16 0 141.44 0 140.97"/><polygon class="cls-154" points="0 140.51 8.35 132.16 8.81 132.16 0 140.97 0 140.51"/><polygon class="cls-155" points="0 140.04 7.88 132.16 8.35 132.16 0 140.51 0 140.04"/><polygon class="cls-156" points="0 139.57 7.41 132.16 7.88 132.16 0 140.04 0 139.57"/><polygon class="cls-157" points="0 139.1 6.94 132.16 7.41 132.16 0 139.57 0 139.1"/><polygon class="cls-158" points="0 138.64 6.47 132.16 6.94 132.16 0 139.1 0 138.64"/><polygon class="cls-159" points="0 138.17 6.01 132.16 6.47 132.16 0 138.64 0 138.17"/><polygon class="cls-160" points="0 137.7 5.54 132.16 6.01 132.16 0 138.17 0 137.7"/><polygon class="cls-161" points="0 137.23 5.07 132.16 5.54 132.16 0 137.7 0 137.23"/><polygon class="cls-162" points="0 136.77 4.6 132.16 5.07 132.16 0 137.23 0 136.77"/><polygon class="cls-163" points="0 136.3 4.14 132.16 4.6 132.16 0 136.77 0 136.3"/><polygon class="cls-164" points="0 135.83 3.67 132.16 4.14 132.16 0 136.3 0 135.83"/><polygon class="cls-164" points="3.67 132.16 0 135.83 0 132.16 3.67 132.16"/></g><g class="cls-166"><polygon class="cls-7" points="187.09 120.63 190.76 116.96 190.76 120.63 187.09 120.63"/><polygon class="cls-7" points="186.62 120.63 190.76 116.49 190.76 116.96 187.09 120.63 186.62 120.63"/><polygon class="cls-8" points="186.15 120.63 190.76 116.02 190.76 116.49 186.62 120.63 186.15 120.63"/><polygon class="cls-9" points="185.68 120.63 190.76 115.55 190.76 116.02 186.15 120.63 185.68 120.63"/><polygon class="cls-10" points="185.22 120.63 190.76 115.08 190.76 115.55 185.68 120.63 185.22 120.63"/><polygon class="cls-11" points="184.75 120.63 190.76 114.62 190.76 115.08 185.22 120.63 184.75 120.63"/><polygon class="cls-12" points="184.28 120.63 190.76 114.15 190.76 114.62 184.75 120.63 184.28 120.63"/><polygon class="cls-13" points="183.81 120.63 190.76 113.68 190.76 114.15 184.28 120.63 183.81 120.63"/><polygon class="cls-14" points="183.34 120.63 190.76 113.22 190.76 113.68 183.81 120.63 183.34 120.63"/><polygon class="cls-15" points="182.88 120.63 190.76 112.75 190.76 113.22 183.34 120.63 182.88 120.63"/><polygon class="cls-16" points="182.41 120.63 190.76 112.28 190.76 112.75 182.88 120.63 182.41 120.63"/><polygon class="cls-17" points="181.94 120.63 190.76 111.81 190.76 112.28 182.41 120.63 181.94 120.63"/><polygon class="cls-18" points="181.47 120.63 190.76 111.34 190.76 111.81 181.94 120.63 181.47 120.63"/><polygon class="cls-19" points="181.01 120.63 190.76 110.88 190.76 111.34 181.47 120.63 181.01 120.63"/><polygon class="cls-20" points="180.54 120.63 190.76 110.41 190.76 110.88 181.01 120.63 180.54 120.63"/><polygon class="cls-21" points="180.07 120.63 190.76 109.94 190.76 110.41 180.54 120.63 180.07 120.63"/><polygon class="cls-22" points="179.6 120.63 190.76 109.47 190.76 109.94 180.07 120.63 179.6 120.63"/><polygon class="cls-23" points="179.14 120.63 190.76 109.01 190.76 109.47 179.6 120.63 179.14 120.63"/><polygon class="cls-24" points="178.67 120.63 190.55 108.74 190.76 108.95 190.76 109.01 179.14 120.63 178.67 120.63"/><polygon class="cls-25" points="178.2 120.63 190.32 108.51 190.55 108.74 178.67 120.63 178.2 120.63"/><polygon class="cls-26" points="177.73 120.63 190.09 108.28 190.32 108.51 178.2 120.63 177.73 120.63"/><polygon class="cls-27" points="177.27 120.63 189.78 108.11 189.92 108.11 190.09 108.28 177.73 120.63 177.27 120.63"/><polygon class="cls-28" points="176.8 120.63 189.31 108.11 189.78 108.11 177.27 120.63 176.8 120.63"/><polygon class="cls-29" points="176.33 120.63 188.85 108.11 189.31 108.11 176.8 120.63 176.33 120.63"/><polygon class="cls-30" points="175.86 120.63 188.38 108.11 188.85 108.11 176.33 120.63 175.86 120.63"/><polygon class="cls-31" points="175.4 120.63 187.91 108.11 188.38 108.11 175.86 120.63 175.4 120.63"/><polygon class="cls-32" points="174.93 120.63 187.44 108.11 187.91 108.11 175.4 120.63 174.93 120.63"/><polygon class="cls-33" points="174.46 120.63 186.98 108.11 187.44 108.11 174.93 120.63 174.46 120.63"/><polygon class="cls-34" points="173.99 120.63 186.51 108.11 186.98 108.11 174.46 120.63 173.99 120.63"/><polygon class="cls-35" points="173.53 120.63 186.04 108.11 186.51 108.11 173.99 120.63 173.53 120.63"/><polygon class="cls-36" points="173.06 120.63 185.57 108.11 186.04 108.11 173.53 120.63 173.06 120.63"/><polygon class="cls-37" points="172.59 120.63 185.11 108.11 185.57 108.11 173.06 120.63 172.59 120.63"/><polygon class="cls-38" points="172.12 120.63 184.64 108.11 185.11 108.11 172.59 120.63 172.12 120.63"/><polygon class="cls-39" points="171.65 120.63 184.17 108.11 184.64 108.11 172.12 120.63 171.65 120.63"/><polygon class="cls-40" points="171.19 120.63 183.7 108.11 184.17 108.11 171.65 120.63 171.19 120.63"/><polygon class="cls-41" points="170.72 120.63 183.24 108.11 183.7 108.11 171.19 120.63 170.72 120.63"/><polygon class="cls-42" points="170.25 120.63 182.77 108.11 183.24 108.11 170.72 120.63 170.25 120.63"/><polygon class="cls-43" points="169.78 120.63 182.3 108.11 182.77 108.11 170.25 120.63 169.78 120.63"/><polygon class="cls-44" points="169.32 120.63 181.83 108.11 182.3 108.11 169.78 120.63 169.32 120.63"/><polygon class="cls-45" points="168.85 120.63 181.37 108.11 181.83 108.11 169.32 120.63 168.85 120.63"/><polygon class="cls-46" points="168.38 120.63 180.9 108.11 181.37 108.11 168.85 120.63 168.38 120.63"/><polygon class="cls-47" points="167.91 120.63 180.43 108.11 180.9 108.11 168.38 120.63 167.91 120.63"/><polygon class="cls-48" points="167.44 120.63 179.96 108.11 180.43 108.11 167.91 120.63 167.44 120.63"/><polygon class="cls-49" points="166.98 120.63 179.49 108.11 179.96 108.11 167.44 120.63 166.98 120.63"/><polygon class="cls-50" points="166.51 120.63 179.03 108.11 179.49 108.11 166.98 120.63 166.51 120.63"/><polygon class="cls-51" points="166.04 120.63 178.56 108.11 179.03 108.11 166.51 120.63 166.04 120.63"/><polygon class="cls-52" points="165.57 120.63 178.09 108.11 178.56 108.11 166.04 120.63 165.57 120.63"/><polygon class="cls-53" points="165.11 120.63 177.62 108.11 178.09 108.11 165.57 120.63 165.11 120.63"/><polygon class="cls-54" points="164.64 120.63 177.16 108.11 177.62 108.11 165.11 120.63 164.64 120.63"/><polygon class="cls-55" points="164.17 120.63 176.69 108.11 177.16 108.11 164.64 120.63 164.17 120.63"/><polygon class="cls-56" points="163.7 120.63 176.22 108.11 176.69 108.11 164.17 120.63 163.7 120.63"/><polygon class="cls-57" points="163.24 120.63 175.75 108.11 176.22 108.11 163.7 120.63 163.24 120.63"/><polygon class="cls-58" points="162.77 120.63 175.28 108.11 175.75 108.11 163.24 120.63 162.77 120.63"/><polygon class="cls-59" points="162.3 120.63 174.82 108.11 175.28 108.11 162.77 120.63 162.3 120.63"/><polygon class="cls-60" points="161.83 120.63 174.35 108.11 174.82 108.11 162.3 120.63 161.83 120.63"/><polygon class="cls-61" points="161.37 120.63 173.88 108.11 174.35 108.11 161.83 120.63 161.37 120.63"/><polygon class="cls-62" points="160.9 120.63 173.41 108.11 173.88 108.11 161.37 120.63 160.9 120.63"/><polygon class="cls-63" points="160.43 120.63 172.95 108.11 173.41 108.11 160.9 120.63 160.43 120.63"/><polygon class="cls-64" points="159.96 120.63 172.48 108.11 172.95 108.11 160.43 120.63 159.96 120.63"/><polygon class="cls-65" points="159.5 120.63 172.01 108.11 172.48 108.11 159.96 120.63 159.5 120.63"/><polygon class="cls-66" points="159.03 120.63 171.54 108.11 172.01 108.11 159.5 120.63 159.03 120.63"/><polygon class="cls-67" points="158.56 120.63 171.08 108.11 171.54 108.11 159.03 120.63 158.56 120.63"/><polygon class="cls-68" points="158.09 120.63 170.61 108.11 171.08 108.11 158.56 120.63 158.09 120.63"/><polygon class="cls-69" points="157.63 120.63 170.14 108.11 170.61 108.11 158.09 120.63 157.63 120.63"/><polygon class="cls-70" points="157.16 120.63 169.67 108.11 170.14 108.11 157.63 120.63 157.16 120.63"/><polygon class="cls-71" points="156.69 120.63 169.21 108.11 169.67 108.11 157.16 120.63 156.69 120.63"/><polygon class="cls-72" points="156.22 120.63 168.74 108.11 169.21 108.11 156.69 120.63 156.22 120.63"/><polygon class="cls-73" points="155.75 120.63 168.27 108.11 168.74 108.11 156.22 120.63 155.75 120.63"/><polygon class="cls-74" points="155.29 120.63 167.8 108.11 168.27 108.11 155.75 120.63 155.29 120.63"/><polygon class="cls-75" points="154.82 120.63 167.34 108.11 167.8 108.11 155.29 120.63 154.82 120.63"/><polygon class="cls-76" points="154.35 120.63 166.87 108.11 167.34 108.11 154.82 120.63 154.35 120.63"/><polygon class="cls-77" points="153.88 120.63 166.4 108.11 166.87 108.11 154.35 120.63 153.88 120.63"/><polygon class="cls-78" points="153.42 120.63 165.93 108.11 166.4 108.11 153.88 120.63 153.42 120.63"/><polygon class="cls-79" points="152.95 120.63 165.47 108.11 165.93 108.11 153.42 120.63 152.95 120.63"/><polygon class="cls-80" points="152.48 120.63 165 108.11 165.47 108.11 152.95 120.63 152.48 120.63"/><polygon class="cls-81" points="152.01 120.63 164.53 108.11 165 108.11 152.48 120.63 152.01 120.63"/><polygon class="cls-82" points="151.55 120.63 164.06 108.11 164.53 108.11 152.01 120.63 151.55 120.63"/><polygon class="cls-83" points="151.08 120.63 163.59 108.11 164.06 108.11 151.55 120.63 151.08 120.63"/><polygon class="cls-84" points="150.61 120.63 163.13 108.11 163.59 108.11 151.08 120.63 150.61 120.63"/><polygon class="cls-85" points="150.14 120.63 162.66 108.11 163.13 108.11 150.61 120.63 150.14 120.63"/><polygon class="cls-86" points="149.68 120.63 162.19 108.11 162.66 108.11 150.14 120.63 149.68 120.63"/><polygon class="cls-87" points="149.21 120.63 161.72 108.11 162.19 108.11 149.68 120.63 149.21 120.63"/><polygon class="cls-88" points="148.74 120.63 161.26 108.11 161.72 108.11 149.21 120.63 148.74 120.63"/><polygon class="cls-89" points="148.27 120.63 160.79 108.11 161.26 108.11 148.74 120.63 148.27 120.63"/><polygon class="cls-90" points="147.81 120.63 160.32 108.11 160.79 108.11 148.27 120.63 147.81 120.63"/><polygon class="cls-91" points="147.34 120.63 159.85 108.11 160.32 108.11 147.81 120.63 147.34 120.63"/><polygon class="cls-92" points="146.87 120.63 159.39 108.11 159.85 108.11 147.34 120.63 146.87 120.63"/><polygon class="cls-93" points="146.4 120.63 158.92 108.11 159.39 108.11 146.87 120.63 146.4 120.63"/><polygon class="cls-94" points="145.93 120.63 158.45 108.11 158.92 108.11 146.4 120.63 145.93 120.63"/><polygon class="cls-95" points="145.47 120.63 157.98 108.11 158.45 108.11 145.93 120.63 145.47 120.63"/><polygon class="cls-96" points="145 120.63 157.51 108.11 157.98 108.11 145.47 120.63 145 120.63"/><polygon class="cls-97" points="144.53 120.63 157.05 108.11 157.51 108.11 145 120.63 144.53 120.63"/><polygon class="cls-98" points="144.06 120.63 156.58 108.11 157.05 108.11 144.53 120.63 144.06 120.63"/><polygon class="cls-99" points="143.6 120.63 156.11 108.11 156.58 108.11 144.06 120.63 143.6 120.63"/><polygon class="cls-100" points="143.13 120.63 155.65 108.11 156.11 108.11 143.6 120.63 143.13 120.63"/><polygon class="cls-101" points="142.66 120.63 155.18 108.11 155.65 108.11 143.13 120.63 142.66 120.63"/><polygon class="cls-102" points="142.19 120.63 154.71 108.11 155.18 108.11 142.66 120.63 142.19 120.63"/><polygon class="cls-103" points="141.72 120.63 154.24 108.11 154.71 108.11 142.19 120.63 141.72 120.63"/><polygon class="cls-104" points="141.26 120.63 153.77 108.11 154.24 108.11 141.72 120.63 141.26 120.63"/><polygon class="cls-105" points="140.79 120.63 153.31 108.11 153.77 108.11 141.26 120.63 140.79 120.63"/><polygon class="cls-106" points="140.32 120.63 152.84 108.11 153.31 108.11 140.79 120.63 140.32 120.63"/><polygon class="cls-107" points="139.85 120.63 152.37 108.11 152.84 108.11 140.32 120.63 139.85 120.63"/><polygon class="cls-108" points="139.39 120.63 151.9 108.11 152.37 108.11 139.85 120.63 139.39 120.63"/><polygon class="cls-109" points="138.92 120.63 151.44 108.11 151.9 108.11 139.39 120.63 138.92 120.63"/><polygon class="cls-110" points="138.45 120.63 150.97 108.11 151.44 108.11 138.92 120.63 138.45 120.63"/><polygon class="cls-111" points="137.98 120.63 150.5 108.11 150.97 108.11 138.45 120.63 137.98 120.63"/><polygon class="cls-112" points="137.52 120.63 150.03 108.11 150.5 108.11 137.98 120.63 137.52 120.63"/><polygon class="cls-113" points="137.05 120.63 149.56 108.11 150.03 108.11 137.52 120.63 137.05 120.63"/><polygon class="cls-114" points="136.58 120.63 149.1 108.11 149.56 108.11 137.05 120.63 136.58 120.63"/><polygon class="cls-115" points="136.11 120.63 148.63 108.11 149.1 108.11 136.58 120.63 136.11 120.63"/><polygon class="cls-116" points="135.65 120.63 148.16 108.11 148.63 108.11 136.11 120.63 135.65 120.63"/><polygon class="cls-117" points="135.18 120.63 147.69 108.11 148.16 108.11 135.65 120.63 135.18 120.63"/><polygon class="cls-118" points="134.71 120.63 147.23 108.11 147.69 108.11 135.18 120.63 134.71 120.63"/><polygon class="cls-119" points="134.24 120.63 146.76 108.11 147.23 108.11 134.71 120.63 134.24 120.63"/><polygon class="cls-120" points="133.78 120.63 146.29 108.11 146.76 108.11 134.24 120.63 133.78 120.63"/><polygon class="cls-121" points="133.31 120.63 145.82 108.11 146.29 108.11 133.78 120.63 133.31 120.63"/><polygon class="cls-122" points="132.84 120.63 145.36 108.11 145.82 108.11 133.31 120.63 132.84 120.63"/><polygon class="cls-123" points="132.37 120.63 144.89 108.11 145.36 108.11 132.84 120.63 132.37 120.63"/><polygon class="cls-124" points="131.91 120.63 144.42 108.11 144.89 108.11 132.37 120.63 131.91 120.63"/><polygon class="cls-125" points="131.44 120.63 143.95 108.11 144.42 108.11 131.91 120.63 131.44 120.63"/><polygon class="cls-126" points="130.97 120.63 143.49 108.11 143.95 108.11 131.44 120.63 130.97 120.63"/><polygon class="cls-127" points="130.5 120.63 143.02 108.11 143.49 108.11 130.97 120.63 130.5 120.63"/><polygon class="cls-128" points="130.03 120.63 142.55 108.11 143.02 108.11 130.5 120.63 130.03 120.63"/><polygon class="cls-129" points="129.57 120.63 142.08 108.11 142.55 108.11 130.03 120.63 129.57 120.63"/><polygon class="cls-130" points="129.1 120.63 141.62 108.11 142.08 108.11 129.57 120.63 129.1 120.63"/><polygon class="cls-131" points="128.63 120.63 141.15 108.11 141.62 108.11 129.1 120.63 128.63 120.63"/><polygon class="cls-132" points="128.16 120.63 140.68 108.11 141.15 108.11 128.63 120.63 128.16 120.63"/><polygon class="cls-133" points="127.7 120.63 140.21 108.11 140.68 108.11 128.16 120.63 127.7 120.63"/><polygon class="cls-134" points="127.23 120.63 139.75 108.11 140.21 108.11 127.7 120.63 127.23 120.63"/><polygon class="cls-135" points="126.76 120.63 139.28 108.11 139.75 108.11 127.23 120.63 126.76 120.63"/><polygon class="cls-136" points="126.29 120.63 138.81 108.11 139.28 108.11 126.76 120.63 126.29 120.63"/><polygon class="cls-137" points="125.83 120.63 138.34 108.11 138.81 108.11 126.29 120.63 125.83 120.63"/><polygon class="cls-138" points="125.36 120.63 137.87 108.11 138.34 108.11 125.83 120.63 125.36 120.63"/><polygon class="cls-139" points="124.89 120.63 137.41 108.11 137.87 108.11 125.36 120.63 124.89 120.63"/><polygon class="cls-140" points="124.42 120.63 136.94 108.11 137.41 108.11 124.89 120.63 124.42 120.63"/><polygon class="cls-141" points="123.95 120.63 136.47 108.11 136.94 108.11 124.42 120.63 123.95 120.63"/><polygon class="cls-142" points="123.49 120.63 136 108.11 136.47 108.11 123.95 120.63 123.49 120.63"/><polygon class="cls-143" points="123.02 120.63 135.54 108.11 136 108.11 123.49 120.63 123.02 120.63"/><polygon class="cls-144" points="122.55 120.63 135.07 108.11 135.54 108.11 123.02 120.63 122.55 120.63"/><polygon class="cls-145" points="122.08 120.63 134.6 108.11 135.07 108.11 122.55 120.63 122.08 120.63"/><polygon class="cls-146" points="122.05 120.2 134.13 108.11 134.6 108.11 122.08 120.63 122.05 120.63 122.05 120.2"/><polygon class="cls-147" points="122.05 119.73 133.66 108.11 134.13 108.11 122.05 120.2 122.05 119.73"/><polygon class="cls-148" points="122.05 119.26 133.2 108.11 133.66 108.11 122.05 119.73 122.05 119.26"/><polygon class="cls-149" points="122.05 118.79 132.73 108.11 133.2 108.11 122.05 119.26 122.05 118.79"/><polygon class="cls-150" points="122.05 118.33 132.26 108.11 132.73 108.11 122.05 118.79 122.05 118.33"/><polygon class="cls-151" points="122.05 117.86 131.79 108.11 132.26 108.11 122.05 118.33 122.05 117.86"/><polygon class="cls-152" points="122.05 117.39 131.33 108.11 131.79 108.11 122.05 117.86 122.05 117.39"/><polygon class="cls-153" points="122.05 116.92 130.86 108.11 131.33 108.11 122.05 117.39 122.05 116.92"/><polygon class="cls-154" points="122.05 116.46 130.39 108.11 130.86 108.11 122.05 116.92 122.05 116.46"/><polygon class="cls-155" points="122.05 115.99 129.92 108.11 130.39 108.11 122.05 116.46 122.05 115.99"/><polygon class="cls-156" points="122.05 115.52 129.46 108.11 129.92 108.11 122.05 115.99 122.05 115.52"/><polygon class="cls-157" points="122.05 115.05 128.99 108.11 129.46 108.11 122.05 115.52 122.05 115.05"/><polygon class="cls-158" points="122.05 114.59 128.52 108.11 128.99 108.11 122.05 115.05 122.05 114.59"/><polygon class="cls-159" points="122.05 114.12 128.05 108.11 128.52 108.11 122.05 114.59 122.05 114.12"/><polygon class="cls-160" points="122.05 113.65 127.59 108.11 128.05 108.11 122.05 114.12 122.05 113.65"/><polygon class="cls-161" points="122.05 113.18 127.12 108.11 127.59 108.11 122.05 113.65 122.05 113.18"/><polygon class="cls-162" points="122.05 112.72 126.65 108.11 127.12 108.11 122.05 113.18 122.05 112.72"/><polygon class="cls-163" points="122.05 112.25 126.18 108.11 126.65 108.11 122.05 112.72 122.05 112.25"/><polygon class="cls-164" points="122.05 111.78 125.72 108.11 126.18 108.11 122.05 112.25 122.05 111.78"/><polygon class="cls-164" points="125.72 108.11 122.05 111.78 122.05 108.11 125.72 108.11"/></g></g></g></svg>