<svg xmlns="http://www.w3.org/2000/svg" xmlns:xlink="http://www.w3.org/1999/xlink" viewBox="0 0 190.22 155.52"><defs><style>.cls-1{fill:#fff;}.cls-2{fill:url(#linear-gradient);}.cls-3{fill:#ffcb05;}.cls-4{fill:#42210b;}.cls-5{fill:#ededed;}.cls-6{fill:url(#linear-gradient-2);}.cls-7{fill:url(#linear-gradient-3);}.cls-8{fill:url(#linear-gradient-4);}</style><linearGradient id="linear-gradient" x1="5.28" y1="82.57" x2="186.66" y2="79.22" gradientUnits="userSpaceOnUse"><stop offset="0" stop-color="#ff00f1"/><stop offset="1" stop-color="#6100ff"/></linearGradient><linearGradient id="linear-gradient-2" x1="4.48" y1="39.41" x2="185.86" y2="36.06" xlink:href="#linear-gradient"/><linearGradient id="linear-gradient-3" x1="4.68" y1="50.33" x2="186.06" y2="46.98" xlink:href="#linear-gradient"/><linearGradient id="linear-gradient-4" x1="5.55" y1="122.77" x2="188.52" y2="121.93" xlink:href="#linear-gradient"/></defs><title>home</title><g id="Calque_2" data-name="Calque 2"><g id="Charte_Graphique" data-name="Charte Graphique"><path class="cls-1" d="M48.52,150.49a20.89,20.89,0,0,1-20.87-20.87V64.92a5.06,5.06,0,0,1,1.94-4l63.2-49.43a5.07,5.07,0,0,1,3.1-1.07A5,5,0,0,1,99,11.53L160.63,59.9a5,5,0,0,1,1.93,4v65.76a20.89,20.89,0,0,1-20.86,20.87Z"/><path class="cls-2" d="M95.89,15.49l61.64,48.37v65.76a15.84,15.84,0,0,1-15.83,15.84H48.52a15.84,15.84,0,0,1-15.83-15.84V64.92l63.2-49.43m0-10.07a10.05,10.05,0,0,0-6.2,2.14L26.49,57a10.05,10.05,0,0,0-3.87,7.93v64.7a25.93,25.93,0,0,0,25.9,25.9H141.7a25.92,25.92,0,0,0,25.89-25.9V63.86a10.08,10.08,0,0,0-3.85-7.92L102.11,7.57a10.06,10.06,0,0,0-6.22-2.15Z"/><path class="cls-3" d="M182.33,74.06,102.12,7.9a10,10,0,0,0-14,0L7.89,74.06A9.81,9.81,0,1,0,21.78,87.93L95.11,28.64l73.34,59.29a9.81,9.81,0,1,0,13.88-13.87Z"/><path class="cls-4" d="M175.38,95.84h0a14.76,14.76,0,0,1-10.29-4.14l-70-56.59-70,56.59A14.85,14.85,0,0,1,4.34,70.5l.35-.32,80-66A14.64,14.64,0,0,1,95.15,0h.13a14.64,14.64,0,0,1,10.21,4.16l80,66q.18.15.36.33a14.84,14.84,0,0,1-10.51,25.33ZM95.11,23.6a5,5,0,0,1,3.16,1.12L171.61,84a4.48,4.48,0,0,1,.4.36,4.73,4.73,0,0,0,3.37,1.4h0a4.78,4.78,0,0,0,3.52-8l-80-66a3.73,3.73,0,0,1-.36-.32,4.62,4.62,0,0,0-3.41-1.39,4.88,4.88,0,0,0-3.49,1.39c-.11.11-.24.22-.36.32l-80,66a4.78,4.78,0,0,0,6.91,6.61c.12-.12.26-.24.39-.35l73.33-59.3A5.09,5.09,0,0,1,95.11,23.6Z"/><path class="cls-1" d="M182.33,74.06,102.12,7.9a10,10,0,0,0-14,0L7.89,74.06A9.81,9.81,0,1,0,21.78,87.93L95.11,28.64l73.34,59.29a9.81,9.81,0,1,0,13.88-13.87Z"/><path class="cls-4" d="M175.38,95.84h0a14.76,14.76,0,0,1-10.29-4.14l-70-56.59-70,56.59A14.85,14.85,0,0,1,4.34,70.5l.35-.32,80-66A14.64,14.64,0,0,1,95.15,0h.13a14.64,14.64,0,0,1,10.21,4.16l80,66q.18.15.36.33a14.84,14.84,0,0,1-10.51,25.33ZM95.11,23.6a5,5,0,0,1,3.16,1.12L171.61,84a4.48,4.48,0,0,1,.4.36,4.73,4.73,0,0,0,3.37,1.4h0a4.78,4.78,0,0,0,3.52-8l-80-66a3.73,3.73,0,0,1-.36-.32,4.62,4.62,0,0,0-3.41-1.39,4.88,4.88,0,0,0-3.49,1.39c-.11.11-.24.22-.36.32l-80,66a4.78,4.78,0,0,0,6.91,6.61c.12-.12.26-.24.39-.35l73.33-59.3A5.09,5.09,0,0,1,95.11,23.6Z"/><path class="cls-5" d="M32.69,71.75a5,5,0,0,1-5-5V15.43a9.78,9.78,0,0,1,9.77-9.77h5.7a9.78,9.78,0,0,1,9.77,9.77V66.72a5,5,0,0,1-5,5Z"/><path class="cls-6" d="M43.12,10.7a4.73,4.73,0,0,1,4.73,4.73V66.72H32.69V15.43a4.73,4.73,0,0,1,4.73-4.73h5.7m0-10.07h-5.7a14.82,14.82,0,0,0-14.8,14.8V66.72A10.06,10.06,0,0,0,32.69,76.78H47.85A10.06,10.06,0,0,0,57.92,66.72V15.43A14.82,14.82,0,0,0,43.12.63Z"/><path class="cls-5" d="M94.63,16.48,32.69,64.92v64.7a15.84,15.84,0,0,0,15.83,15.84H94.63Z"/><path class="cls-5" d="M94.63,5.08A9.66,9.66,0,0,0,88.1,7.9L7.89,74.06A9.81,9.81,0,1,0,21.78,87.93L94.63,29Z"/><path class="cls-7" d="M175.38,95.84h0a14.76,14.76,0,0,1-10.29-4.14l-70-56.59-70,56.59A14.85,14.85,0,0,1,4.34,70.5l.35-.32,80-66A14.64,14.64,0,0,1,95.15,0h.13a14.64,14.64,0,0,1,10.21,4.16l80,66q.18.15.36.33a14.84,14.84,0,0,1-10.51,25.33ZM95.11,23.6a5,5,0,0,1,3.16,1.12L171.61,84a4.48,4.48,0,0,1,.4.36,4.73,4.73,0,0,0,3.37,1.4h0a4.78,4.78,0,0,0,3.52-8l-80-66a3.73,3.73,0,0,1-.36-.32,4.62,4.62,0,0,0-3.41-1.39,4.88,4.88,0,0,0-3.49,1.39c-.11.11-.24.22-.36.32l-80,66a4.78,4.78,0,0,0,6.91,6.61c.12-.12.26-.24.39-.35l73.33-59.3A5.09,5.09,0,0,1,95.11,23.6Z"/><path class="cls-1" d="M80.27,150.49a5,5,0,0,1-5-5V106.38A12.21,12.21,0,0,1,87.43,94.19h15.36A12.21,12.21,0,0,1,115,106.38v39.08a5,5,0,0,1-5,5Z"/><path class="cls-8" d="M102.79,99.23a7.16,7.16,0,0,1,7.16,7.15v39.08H80.27V106.38a7.16,7.16,0,0,1,7.16-7.15h15.36m0-10.07H87.43A17.25,17.25,0,0,0,70.2,106.38v39.08a10.06,10.06,0,0,0,10.07,10.06H110A10.05,10.05,0,0,0,120,145.46V106.38a17.24,17.24,0,0,0-17.22-17.22Z"/><path class="cls-1" d="M138.21,135.57a5,5,0,0,1-5-5v-29.9a5,5,0,1,1,10.06,0v29.9A5,5,0,0,1,138.21,135.57Z"/></g></g></svg>