<svg xmlns="http://www.w3.org/2000/svg" xmlns:xlink="http://www.w3.org/1999/xlink" viewBox="0 0 175.72 154.17"><defs><style>.cls-1{fill:#fff;}.cls-2{fill:#ededed;}.cls-3{fill:url(#linear-gradient);}.cls-4{fill:url(#linear-gradient-2);}.cls-5{fill:url(#linear-gradient-3);}.cls-6{fill:url(#linear-gradient-4);}.cls-7{fill:url(#linear-gradient-5);}.cls-8{fill:url(#linear-gradient-6);}</style><linearGradient id="linear-gradient" x1="7.98" y1="142.04" x2="171.38" y2="28.68" gradientUnits="userSpaceOnUse"><stop offset="0" stop-color="#ff00f1"/><stop offset="1" stop-color="#6100ff"/></linearGradient><linearGradient id="linear-gradient-2" x1="6.65" y1="140.13" x2="170.06" y2="26.77" xlink:href="#linear-gradient"/><linearGradient id="linear-gradient-3" x1="6.65" y1="140.13" x2="170.06" y2="26.77" xlink:href="#linear-gradient"/><linearGradient id="linear-gradient-4" x1="6.41" y1="139.78" x2="169.81" y2="26.42" xlink:href="#linear-gradient"/><linearGradient id="linear-gradient-5" x1="9.14" y1="143.71" x2="172.54" y2="30.35" xlink:href="#linear-gradient"/><linearGradient id="linear-gradient-6" x1="-13.76" y1="110.7" x2="149.64" y2="-2.66" xlink:href="#linear-gradient"/></defs><title>photo</title><g id="Calque_2" data-name="Calque 2"><g id="Charte_Graphique" data-name="Charte Graphique"><path class="cls-1" d="M24,149.25a19.08,19.08,0,0,1-19-19.05V43A19.07,19.07,0,0,1,24,24H43.05v0a19.07,19.07,0,0,1,19.05-19h51.52a19.07,19.07,0,0,1,19,19v0h19.08A19.06,19.06,0,0,1,170.8,43V130.2a19.07,19.07,0,0,1-19.05,19.05Z"/><path class="cls-2" d="M87.81,9.84H62.1A14.13,14.13,0,0,0,48,24v4.94H24A14.13,14.13,0,0,0,9.84,43V130.2A14.13,14.13,0,0,0,24,144.33H87.81Z"/><path class="cls-3" d="M113.62,9.84A14.13,14.13,0,0,1,127.75,24v4.94h24A14.14,14.14,0,0,1,165.88,43V130.2a14.14,14.14,0,0,1-14.13,14.13H24A14.13,14.13,0,0,1,9.84,130.2V43A14.13,14.13,0,0,1,24,28.91H48V24A14.13,14.13,0,0,1,62.1,9.84h51.52m0-9.84H62.1A24,24,0,0,0,38.63,19.06H24A24,24,0,0,0,0,43V130.2a24,24,0,0,0,24,24H151.75a24,24,0,0,0,24-24V43a24,24,0,0,0-24-24H137.09A24,24,0,0,0,113.62,0Z"/><path class="cls-4" d="M87.86,130.85a47.06,47.06,0,1,1,47.05-47.06A47.1,47.1,0,0,1,87.86,130.85Zm0-89.51a42.46,42.46,0,1,0,42.45,42.45A42.5,42.5,0,0,0,87.86,41.34Z"/><path class="cls-5" d="M87.86,113.06a29.26,29.26,0,1,1,29.25-29.27A29.29,29.29,0,0,1,87.86,113.06Zm0-53.92a24.66,24.66,0,1,0,24.65,24.65A24.68,24.68,0,0,0,87.86,59.14Z"/><path class="cls-6" d="M98.77,88.19a2.3,2.3,0,0,1-2.3-2.3,9.73,9.73,0,0,0-9.73-9.72,2.3,2.3,0,0,1,0-4.6,14.34,14.34,0,0,1,14.33,14.32A2.3,2.3,0,0,1,98.77,88.19Z"/><path class="cls-7" d="M155,51.76a2.3,2.3,0,0,1-2.3-2.3,5.93,5.93,0,0,0-5.92-5.93,2.3,2.3,0,0,1,0-4.6,10.54,10.54,0,0,1,10.52,10.53A2.3,2.3,0,0,1,155,51.76Z"/><path class="cls-8" d="M116.27,30.12a2.3,2.3,0,0,1-2.3-2.3,6.35,6.35,0,0,0-6.35-6.35,2.3,2.3,0,0,1,0-4.6,11,11,0,0,1,10.95,11A2.3,2.3,0,0,1,116.27,30.12Z"/></g></g></svg>