<svg xmlns="http://www.w3.org/2000/svg" xmlns:xlink="http://www.w3.org/1999/xlink" viewBox="0 0 179.89 179.85"><defs><style>.cls-1{fill:#ededed;}.cls-2{fill:#fff;}.cls-3{fill:url(#linear-gradient);}.cls-4{fill:url(#linear-gradient-2);}.cls-5{fill:url(#linear-gradient-3);}.cls-6{fill:url(#linear-gradient-4);}.cls-7{fill:url(#linear-gradient-5);}.cls-8{fill:url(#linear-gradient-6);}.cls-9{fill:url(#linear-gradient-7);}</style><linearGradient id="linear-gradient" x1="39.71" y1="71.84" x2="150.88" y2="-25.56" gradientUnits="userSpaceOnUse"><stop offset="0" stop-color="#ff00f1"/><stop offset="1" stop-color="#6100ff"/></linearGradient><linearGradient id="linear-gradient-2" x1="100.43" y1="141.16" x2="211.61" y2="43.76" xlink:href="#linear-gradient"/><linearGradient id="linear-gradient-3" x1="69.43" y1="105.77" x2="180.61" y2="8.37" xlink:href="#linear-gradient"/><linearGradient id="linear-gradient-4" x1="129.84" y1="49.24" x2="149.95" y2="30.81" xlink:href="#linear-gradient"/><linearGradient id="linear-gradient-5" x1="8.38" y1="145.29" x2="61.26" y2="145.29" xlink:href="#linear-gradient"/><linearGradient id="linear-gradient-6" x1="0" y1="120.66" x2="42.04" y2="120.66" xlink:href="#linear-gradient"/><linearGradient id="linear-gradient-7" x1="38.16" y1="158.83" x2="80.2" y2="158.83" xlink:href="#linear-gradient"/></defs><title>scores</title><g id="Calque_2" data-name="Calque 2"><g id="Charte_Graphique" data-name="Charte Graphique"><path class="cls-1" d="M97.65,164.16a5,5,0,0,1-5-5.19l1-32.24a5.07,5.07,0,0,1,1.3-3.22l37.14-41a5,5,0,0,1,3.73-1.66,4.9,4.9,0,0,1,2,.41,5,5,0,0,1,3.05,5L137.18,138a5,5,0,0,1-2.36,3.92l-34.51,21.5A5.06,5.06,0,0,1,97.65,164.16Z"/><path class="cls-2" d="M21,87.5a5,5,0,0,1-4.27-7.69L38.22,45.3a5,5,0,0,1,3.91-2.36l51.75-3.66h.36A5,5,0,0,1,97.61,48l-41,37.13a5,5,0,0,1-3.22,1.3Z"/><path class="cls-3" d="M94.23,44.3l-41,37.13L21,82.47,42.49,48,94.23,44.3Zm0-10.07-.72,0L41.78,37.92a10.08,10.08,0,0,0-7.84,4.72L12.45,77.15A10.06,10.06,0,0,0,21,92.53h.32l32.24-1A10,10,0,0,0,60,88.9l41-37.14a10.07,10.07,0,0,0-6.75-17.53Z"/><path class="cls-2" d="M92.84,127.89a5,5,0,0,1-3.55-1.47L53.43,90.57a5,5,0,0,1,0-7.12L117,20C125.72,11.17,141.67,5,155.73,5a38.41,38.41,0,0,1,13.45,2.24,5.13,5.13,0,0,1,3.45,3.52c6.24,17-1.62,41-12.72,52.12L96.4,126.42A5,5,0,0,1,92.84,127.89Z"/><path class="cls-4" d="M135.82,85.89l-3.66,51.74-34.51,21.5,1-32.24,37.14-41m0-10.07a10.06,10.06,0,0,0-7.46,3.31l-37.14,41a10.1,10.1,0,0,0-2.6,6.44l-1,32.23A10.07,10.07,0,0,0,103,167.67l34.51-21.5a10,10,0,0,0,4.72-7.83l3.66-51.74a10.07,10.07,0,0,0-10-10.78Z"/><path class="cls-5" d="M155.73,10.06a33.3,33.3,0,0,1,12,2l0,0a0,0,0,0,1,0,0h0l0,0c5.75,14.89-1.5,37.33-11.4,47.23l-63.51,63.5L57,87l63.51-63.5C128,16,142.6,10.07,155.73,10.06Zm0-10.06h0C140.44,0,123,6.74,113.39,16.39L49.87,79.89a10.09,10.09,0,0,0,0,14.24L85.73,130A10.08,10.08,0,0,0,100,130l63.51-63.51C175.91,54,184.36,28.11,177.35,9a10.16,10.16,0,0,0-6.73-6.61A43.92,43.92,0,0,0,155.73,0Z"/><path class="cls-1" d="M167.77,12.16c5.72,14.9-1.53,37.3-11.42,47.2l-63.51,63.5L75,105Z"/><path class="cls-6" d="M139.13,53.77a13,13,0,0,1-9.23-22.28h0a12.93,12.93,0,0,1,9.23-3.82h0a13.05,13.05,0,1,1,0,26.1ZM137,38.61a3,3,0,1,0,2.11-.88h0a2.93,2.93,0,0,0-2.11.88Z"/><path class="cls-7" d="M13.41,171.73a5,5,0,0,1-3.55-8.59l42.81-42.81a5,5,0,0,1,7.11,7.12L17,170.26A5,5,0,0,1,13.41,171.73Z"/><path class="cls-8" d="M5,141.69a5,5,0,0,1-3.56-8.59l32-32a5,5,0,0,1,7.12,7.11l-32,32A5,5,0,0,1,5,141.69Z"/><path class="cls-9" d="M43.2,179.85a5,5,0,0,1-3.56-8.59l32-32a5,5,0,0,1,7.12,7.12l-32,32A5,5,0,0,1,43.2,179.85Z"/><path class="cls-2" d="M82.54,84.83a5,5,0,0,1-3.64-1.56,5,5,0,0,1,.17-7.12l23-21.88A5,5,0,0,1,109,61.56L86,83.44A5,5,0,0,1,82.54,84.83Z"/></g></g></svg>