<svg xmlns="http://www.w3.org/2000/svg" xmlns:xlink="http://www.w3.org/1999/xlink" viewBox="0 0 157.78 157.79"><defs><style>.cls-1{fill:#fff;}.cls-2{fill:url(#linear-gradient);}.cls-3{fill:#ededed;}.cls-4{fill:url(#linear-gradient-2);}</style><linearGradient id="linear-gradient" y1="78.89" x2="157.78" y2="78.89" gradientUnits="userSpaceOnUse"><stop offset="0" stop-color="#ff00f1"/><stop offset="1" stop-color="#6100ff"/></linearGradient><linearGradient id="linear-gradient-2" x1="76.43" y1="59.65" x2="121.15" y2="59.65" xlink:href="#linear-gradient"/></defs><title>settings</title><g id="Calque_2" data-name="Calque 2"><g id="Charte_Graphique" data-name="Charte Graphique"><path class="cls-1" d="M71,153.3a8.57,8.57,0,0,1-8.55-8.56V131.47a54.92,54.92,0,0,1-9.06-3.75L44,137.11a8.57,8.57,0,0,1-12.1,0l-11.2-11.2a8.56,8.56,0,0,1,0-12.1l9.37-9.38a55.07,55.07,0,0,1-3.75-9.06H13a8.56,8.56,0,0,1-8.55-8.56V71A8.56,8.56,0,0,1,13,62.42H26.31a55.48,55.48,0,0,1,3.76-9.06L20.68,44a8.56,8.56,0,0,1,0-12.1l11.19-11.2a8.56,8.56,0,0,1,12.1,0l9.38,9.38a54.76,54.76,0,0,1,9.06-3.76V13A8.57,8.57,0,0,1,71,4.49H86.81A8.57,8.57,0,0,1,95.36,13V26.31a54.71,54.71,0,0,1,9.07,3.76l9.38-9.39a8.56,8.56,0,0,1,12.1,0L137.1,31.88a8.55,8.55,0,0,1,0,12.1l-9.38,9.38a54.92,54.92,0,0,1,3.75,9.06h13.27A8.57,8.57,0,0,1,153.3,71V86.81a8.57,8.57,0,0,1-8.56,8.56H131.47a54.61,54.61,0,0,1-3.75,9l9.39,9.39a8.56,8.56,0,0,1,0,12.1l-11.2,11.2a8.55,8.55,0,0,1-12.09,0l-9.38-9.38a54.42,54.42,0,0,1-9.06,3.75v13.27a8.57,8.57,0,0,1-8.56,8.56Zm7.92-93.92A19.52,19.52,0,1,0,98.41,78.9,19.53,19.53,0,0,0,78.89,59.38Z"/><path class="cls-2" d="M86.81,9A4.06,4.06,0,0,1,90.87,13V27.69a2.67,2.67,0,0,0,2,2.55,50.05,50.05,0,0,1,10.59,4.38,2.72,2.72,0,0,0,1.35.35,2.61,2.61,0,0,0,1.86-.76L117,23.86a4.06,4.06,0,0,1,5.74,0l11.2,11.2a4,4,0,0,1,0,5.74L123.58,51.16a2.62,2.62,0,0,0-.44,3.15A50.77,50.77,0,0,1,127.55,65a2.66,2.66,0,0,0,2.55,2h14.64A4.07,4.07,0,0,1,148.81,71V86.81a4.07,4.07,0,0,1-4.07,4.07H130.1a2.65,2.65,0,0,0-2.55,2,50.53,50.53,0,0,1-4.39,10.58,2.69,2.69,0,0,0,.42,3.21L133.93,117a4.06,4.06,0,0,1,0,5.75l-11.2,11.2a4.06,4.06,0,0,1-5.74,0l-10.36-10.36a2.68,2.68,0,0,0-1.87-.77,2.59,2.59,0,0,0-1.29.34,50.47,50.47,0,0,1-10.63,4.41,2.66,2.66,0,0,0-2,2.55v14.64a4.07,4.07,0,0,1-4.07,4.07H71a4.07,4.07,0,0,1-4.06-4.07V130.1a2.68,2.68,0,0,0-2-2.55,50.53,50.53,0,0,1-10.58-4.39,2.86,2.86,0,0,0-1.35-.35,2.62,2.62,0,0,0-1.86.76L40.8,133.93a4.07,4.07,0,0,1-5.75,0l-11.19-11.2a4.06,4.06,0,0,1,0-5.75l10.35-10.35a2.65,2.65,0,0,0,.44-3.16,50,50,0,0,1-4.41-10.63,2.67,2.67,0,0,0-2.55-2H13A4.07,4.07,0,0,1,9,86.81V71A4.07,4.07,0,0,1,13,66.91H27.69a2.68,2.68,0,0,0,2.55-2,50,50,0,0,1,4.38-10.58,2.69,2.69,0,0,0-.41-3.21L23.86,40.8a4,4,0,0,1,0-5.74l11.19-11.2a4.07,4.07,0,0,1,5.75,0L51.16,34.21A2.6,2.6,0,0,0,53,35a2.73,2.73,0,0,0,1.3-.33,50.39,50.39,0,0,1,10.62-4.41,2.68,2.68,0,0,0,2-2.55V13A4.06,4.06,0,0,1,71,9H86.81M78.89,102.9a24,24,0,1,0-24-24,24,24,0,0,0,24,24M86.81,0H71a13.06,13.06,0,0,0-13,13V23.11c-1.24.47-2.46,1-3.66,1.52l-7.12-7.12a13,13,0,0,0-18.45,0L17.51,28.71a13,13,0,0,0,0,18.44l7.12,7.12c-.55,1.2-1.05,2.43-1.52,3.66H13A13.06,13.06,0,0,0,0,71V86.81a13.06,13.06,0,0,0,13,13H23.11c.46,1.23,1,2.45,1.52,3.66l-7.12,7.12a13,13,0,0,0,0,18.45L28.7,140.28a13,13,0,0,0,18.45,0l7.12-7.11c1.2.55,2.42,1.05,3.66,1.52v10.07a13.06,13.06,0,0,0,13,13H86.81a13.06,13.06,0,0,0,13-13V134.68c1.24-.47,2.46-1,3.67-1.52l7.12,7.12a13,13,0,0,0,18.45,0l11.19-11.19a13,13,0,0,0,0-18.45l-7.11-7.11c.54-1.21,1.05-2.43,1.51-3.66h10.07a13.06,13.06,0,0,0,13-13V71a13.06,13.06,0,0,0-13-13.05H134.67c-.46-1.23-1-2.45-1.51-3.66l7.12-7.12a13,13,0,0,0,0-18.45L129.08,17.51a13,13,0,0,0-18.45,0l-7.11,7.11c-1.21-.55-2.43-1.05-3.67-1.52V13a13.06,13.06,0,0,0-13-13ZM78.89,93.92a15,15,0,1,1,15-15,15,15,0,0,1-15,15Z"/><path class="cls-3" d="M79.09,102.89h-.2a24,24,0,0,1,0-48h.2V9H71A4.06,4.06,0,0,0,66.91,13V27.69a2.68,2.68,0,0,1-2,2.55,50.39,50.39,0,0,0-10.62,4.41,2.65,2.65,0,0,1-3.16-.44L40.8,23.86a4.06,4.06,0,0,0-5.75,0L23.86,35.06a4,4,0,0,0,0,5.74L34.21,51.16a2.69,2.69,0,0,1,.41,3.21A50,50,0,0,0,30.24,65a2.68,2.68,0,0,1-2.55,2H13A4.07,4.07,0,0,0,9,71V86.81A4.07,4.07,0,0,0,13,90.88H27.69a2.67,2.67,0,0,1,2.55,2,50,50,0,0,0,4.41,10.63,2.65,2.65,0,0,1-.44,3.16L23.86,117a4.06,4.06,0,0,0,0,5.75l11.19,11.2a4.06,4.06,0,0,0,5.75,0l10.36-10.36a2.72,2.72,0,0,1,3.21-.41A50.53,50.53,0,0,0,65,127.55a2.68,2.68,0,0,1,2,2.55v14.64A4.07,4.07,0,0,0,71,148.81h8.12Z"/><path class="cls-4" d="M116.12,82a5,5,0,0,1-5-5A29.66,29.66,0,0,0,81.46,47.36a5,5,0,0,1,0-10.07A39.74,39.74,0,0,1,121.15,77,5,5,0,0,1,116.12,82Z"/></g></g></svg>