<svg xmlns="http://www.w3.org/2000/svg" xmlns:xlink="http://www.w3.org/1999/xlink" viewBox="0 0 154.39 157.12"><defs><style>.cls-1{fill:#fff;}.cls-2{fill:url(#linear-gradient);}.cls-3{fill:#ededed;}.cls-4{fill:url(#linear-gradient-2);}.cls-5{fill:url(#linear-gradient-3);}.cls-6{fill:url(#linear-gradient-4);}</style><linearGradient id="linear-gradient" x1="15" y1="110.94" x2="158.22" y2="119.92" gradientUnits="userSpaceOnUse"><stop offset="0" stop-color="#ff00f1"/><stop offset="1" stop-color="#6100ff"/></linearGradient><linearGradient id="linear-gradient-2" x1="20.13" y1="29.14" x2="163.34" y2="38.12" xlink:href="#linear-gradient"/><linearGradient id="linear-gradient-3" x1="15.31" y1="106.03" x2="158.52" y2="115.01" xlink:href="#linear-gradient"/><linearGradient id="linear-gradient-4" x1="20.46" y1="23.85" x2="163.68" y2="32.83" xlink:href="#linear-gradient"/></defs><title>user</title><g id="Calque_2" data-name="Calque 2"><g id="Charte_Graphique" data-name="Charte Graphique"><path class="cls-1" d="M148,127.87a16.17,16.17,0,0,1-16.11,15.47l-.84,0A15.86,15.86,0,0,1,119.82,138L116,133.92l.15,23.2H38.52V133.81l-4,4.3a15.87,15.87,0,0,1-11.17,5.21l-.83,0A16.23,16.23,0,0,1,10.58,116.2L37.64,86.84a29.74,29.74,0,0,1,21.82-9.57H94.93a29.8,29.8,0,0,1,21.84,9.57l27,29.33A15.86,15.86,0,0,1,148,127.87Z"/><path class="cls-2" d="M148.5,111.91,121.43,82.53a36.13,36.13,0,0,0-26.5-11.61H59.46A36.15,36.15,0,0,0,33,82.53l-27,29.33a22.57,22.57,0,0,0,16.58,37.83c.36,0,.75,0,1.13,0a22.57,22.57,0,0,0,8.53-2.07v9.52H44.87l0-39.42-15,16.06A9.38,9.38,0,0,1,23,137a9.85,9.85,0,0,1-4.05-.62l-.4-.18-.29-.13-.51-.26a9.82,9.82,0,0,1-1.84-1.36,9.38,9.38,0,0,1-3.2-6.83,9.48,9.48,0,0,1,2.54-7.1l27-29.33a23.38,23.38,0,0,1,17.15-7.52H94.93a23.41,23.41,0,0,1,17.16,7.52l27,29.33a9.88,9.88,0,0,1-.65,13.93,9.46,9.46,0,0,1-6.57,2.57l-.54,0a9.38,9.38,0,0,1-6.82-3.2l-15-16,.27,39.41h12.71l-.06-9.43a22.53,22.53,0,0,0,8.34,2c.38,0,.76,0,1.14,0a22.58,22.58,0,0,0,16.61-37.78Z"/><path class="cls-3" d="M77.27,83.63v73.49H44.87l0-39.42-15,16.06A9.38,9.38,0,0,1,23,137a9.85,9.85,0,0,1-4.05-.62c-.14-.05-.27-.12-.4-.18l-.29-.13-.51-.26a9.82,9.82,0,0,1-1.84-1.36,9.38,9.38,0,0,1-3.2-6.83,9.48,9.48,0,0,1,2.54-7.1l27-29.33a23.38,23.38,0,0,1,17.15-7.52Z"/><path class="cls-1" d="M77.2,59.07a25.47,25.47,0,0,1-18.65-7.71,25.51,25.51,0,0,1-7.71-18.65,25.48,25.48,0,0,1,7.72-18.64,26.39,26.39,0,0,1,37.28,0,25.5,25.5,0,0,1,7.71,18.64,25.49,25.49,0,0,1-7.71,18.65A25.48,25.48,0,0,1,77.2,59.07Z"/><path class="cls-4" d="M100.34,9.57a32.76,32.76,0,0,0-46.29,0,32,32,0,0,0-9.56,23.14,32,32,0,0,0,9.57,23.14,32.76,32.76,0,0,0,46.28,0,32.07,32.07,0,0,0,9.57-23.14A32.1,32.1,0,0,0,100.34,9.57ZM77.2,52.71a19.22,19.22,0,0,1-14.15-5.84A19.24,19.24,0,0,1,57.2,32.72a19.21,19.21,0,0,1,5.85-14.15,20,20,0,0,1,28.3,0,19.28,19.28,0,0,1,5.84,14.15,19.31,19.31,0,0,1-5.84,14.15A19.3,19.3,0,0,1,77.2,52.71Z"/><path class="cls-3" d="M77.2,12.72a19.25,19.25,0,0,0-14.15,5.85A19.26,19.26,0,0,0,57.2,32.71a19.29,19.29,0,0,0,5.85,14.16A19.24,19.24,0,0,0,77.2,52.71Z"/><path class="cls-5" d="M87.26,124.75a2,2,0,0,1-2-2V98.35a2,2,0,0,1,4,0v24.38A2,2,0,0,1,87.26,124.75Z"/><path class="cls-6" d="M82.27,29.61H78a2,2,0,1,1,0-4h4.28a2,2,0,1,1,0,4Z"/></g></g></svg>